<?xml version="1.0" encoding="utf-8"?>
<!-- Designed by Vexels.com - 2016 All Rights Reserved - https://vexels.com/terms-and-conditions/  -->

<svg version="1.1" id="Layer_1" xmlns="http://www.w3.org/2000/svg" xmlns:xlink="http://www.w3.org/1999/xlink" x="0px" y="0px"
	 width="1200px" height="1200px" viewBox="0 0 1200 1200" enable-background="new 0 0 1200 1200" xml:space="preserve">
<g>
	<path fill="#575756" d="M1037.581,403.264c-4.022-205.845-166.583-293.566-292.87-330.778
		c75.575,42.913,129.816,101.422,157.469,170.229c57.854,144.18,4.76,332.463-157.881,559.604l-0.328,0.45
		c-0.659,0.903-64.58,79.39-88.789,151.192c8.205-2.378,16.575-5.332,25.028-9.025l-24.287,99.25
		c-2.299-0.655-4.681-1.067-7.142-1.067h-88.622c-5.5,0-10.504,1.886-14.523,5.046l-25.113-102.859
		c5.416,2.298,12.803,5.088,21.91,7.714c-24.372-71.559-87.722-149.348-88.461-150.251l-0.408-0.45
		C291.004,575.178,237.914,386.895,295.848,242.715c27.242-68.067,80.743-126.123,155.091-168.876
		c-125.635,37.872-284.42,126.043-288.52,329.425c0,0-2.134,175.443,148.852,344.277c0,0,104.38,111.069,126.618,122.186
		c0,0,57.526,43.985,70.735,64.051l30.116,123.375c-1.231,2.832-1.885,5.949-1.885,9.231v60.316
		c0,12.882,10.419,23.301,23.304,23.301h88.622c12.885,0,23.304-10.42,23.304-23.301v-60.316c0-7.058-3.197-13.373-8.121-17.684
		l28.393-116.279c14.768-20.553,69.832-62.694,69.832-62.694c22.154-11.117,126.614-122.186,126.614-122.186
		C1039.794,578.707,1037.581,403.264,1037.581,403.264z"/>
	<path fill="#575756" d="M484.5,82.002c-54.98,28.679-127.685,81.239-162.15,169.166c-53.42,136.298-2.87,316.38,150.167,535.312
		c4.924,6.155,69.916,88.667,91.335,163.952c19.612,3.735,43.653,5.378,69.996,0.66c21.171-75.453,86.654-158.457,91.578-164.612
		C878.464,567.506,929.016,387.387,875.51,251.047C831.118,137.969,723.62,81.922,656.826,57.138
		c-26.671-4.554-46.446-6.277-54.652-6.932V50c0,0-0.823,0-2.218,0.084C598.56,50,597.825,50,597.825,50v0.206
		c-8.701,0.655-30.2,2.626-59.164,7.714C522.33,63.991,503.785,71.952,484.5,82.002z"/>
</g>
</svg>
