<?xml version="1.0" encoding="utf-8"?>
<!-- Generator: Adobe Illustrator 16.0.3, SVG Export Plug-In . SVG Version: 6.00 Build 0)  -->
<!DOCTYPE svg PUBLIC "-//W3C//DTD SVG 1.1//EN" "http://www.w3.org/Graphics/SVG/1.1/DTD/svg11.dtd">
<svg version="1.1" id="Layer_1" xmlns="http://www.w3.org/2000/svg" xmlns:xlink="http://www.w3.org/1999/xlink" x="0px" y="0px"
	 width="410px" height="410px" viewBox="0 0 410 410" enable-background="new 0 0 410 410" xml:space="preserve">
<path fill="#07D1E2" d="M288.254,225.838c0,5.356-4.342,9.698-9.698,9.698l0,0c-5.355,0-9.698-4.342-9.698-9.698l0,0
	c0-5.355,4.343-9.698,9.698-9.698l0,0C283.912,216.14,288.254,220.482,288.254,225.838L288.254,225.838z"/>
<path fill="#07D1E2" d="M140.243,225.838c0,5.356-4.342,9.698-9.698,9.698l0,0c-5.355,0-9.698-4.342-9.698-9.698l0,0
	c0-5.355,4.343-9.698,9.698-9.698l0,0C135.901,216.14,140.243,220.482,140.243,225.838L140.243,225.838z"/>
<path fill="#6F3FDC" d="M259.921,327.99c-1.62-1.681-3.38-3.29-5.2-4.931h-0.01c-8.93-3.06-16.17-7.31-20.84-12.3
	c-3.46-3.69-5.521-7.78-5.82-12.11c0,0-0.05-0.76-0.05-1.14c0-1.57,0.23-3.11,0.67-4.61l-24.13-4.75l-24.12,4.75
	c0.44,1.5,0.67,3.04,0.67,4.61c0,0.38-0.01,0.76-0.05,1.13v0.01c-0.3,4.33-2.36,8.42-5.82,12.11c-4.68,5-11.92,9.25-20.86,12.31
	c-1.82,1.631-3.58,3.24-5.2,4.921c-8.36,8.699-8.92,50.77-8.92,50.77h128.62C268.861,378.76,268.281,336.689,259.921,327.99z"/>
<path fill="#07D1E2" d="M261.521,238.948c-2.694,0-5.36-1.194-7.148-3.481c-3.084-3.944-2.386-9.643,1.558-12.727
	c44.378-34.696,67.18-69.028,73.935-111.319c1.212-7.591,0.805-17.487-8.019-21.516c-6.083-2.776-12.504-1.258-13.826,0.176
	c-7.466,14.865-24.73,20.795-26.68,21.423c-4.77,1.538-9.876-1.08-11.411-5.845c-1.534-4.754,1.067-9.851,5.813-11.401
	c3.321-1.104,12.679-5.476,16.104-12.373c4.987-10.035,19.802-14.402,33.725-9.947c13.32,4.263,26.147,17.625,22.201,42.341
	c-7.432,46.52-33.065,85.523-80.672,122.744C265.441,238.32,263.475,238.948,261.521,238.948z"/>
<path fill="#07D1E2" d="M147.578,238.948c-1.953,0-3.92-0.628-5.578-1.923c-47.607-37.223-73.241-76.224-80.672-122.744
	c-3.946-24.717,8.881-38.079,22.201-42.342c13.928-4.453,28.737-0.087,33.723,9.947c3.467,6.977,13.005,11.372,16.073,12.362
	c4.766,1.537,7.383,6.646,5.846,11.411c-1.538,4.765-6.644,7.382-11.411,5.846c-1.949-0.628-19.216-6.556-26.683-21.423
	c-1.318-1.434-7.741-2.953-13.825-0.176c-8.823,4.029-9.23,13.925-8.018,21.517c6.755,42.29,29.558,76.621,73.935,111.318
	c3.944,3.084,4.642,8.782,1.558,12.727C152.938,237.753,150.271,238.948,147.578,238.948z"/>
<path fill="#6F3FDC" d="M293.141,72.98l-1.909,83.97c0,37.94-17.511,88.99-33.11,113.92c-10.5,3.109-19,7.779-24.25,13.39
	c-0.49,0.51-0.94,1.04-1.37,1.57h-55.91c-0.43-0.53-0.88-1.061-1.37-1.57c-5.25-5.61-13.74-10.28-24.24-13.38v-0.01
	c-15.6-24.92-33.11-75.97-33.11-113.92l-1.91-83.97c0-19.41,17.02-24.72,38.01-24.72h101.16
	C276.121,48.26,293.141,53.57,293.141,72.98z"/>
<path fill="#432D79" d="M275.288,67.701c0,5.521-5.001,9.998-11.17,9.998H142.534c-6.168,0-11.17-4.477-11.17-9.998l0,0
	c0-5.522,5.001-9.998,11.17-9.998h121.584C270.287,57.703,275.288,62.178,275.288,67.701L275.288,67.701z"/>
<path fill="#07D1E2" d="M271.737,215.706c0,3.556-3.089,6.434-6.898,6.434l0,0c-3.808,0-6.896-2.878-6.896-6.434l0,0
	c0-3.556,3.089-6.437,6.896-6.437l0,0C268.648,209.27,271.737,212.15,271.737,215.706L271.737,215.706z"/>
<path fill="#07D1E2" d="M268.534,201.563c-0.443,0-0.895-0.048-1.345-0.144c-3.435-0.739-5.62-4.123-4.881-7.558
	c1.306-6.069,1.969-12.068,1.969-17.827V99.593c0-3.514,2.848-6.362,6.36-6.362c3.514,0,6.361,2.848,6.361,6.362v76.441
	c0,6.657-0.758,13.555-2.252,20.503C274.104,199.521,271.467,201.563,268.534,201.563z"/>
<path fill="#07D1E2" d="M179.731,72.171h-34.099c-2.737,0-4.958,2.171-4.958,4.848v96.324l22.007-15.152l22.007,15.152V77.019
	C184.688,74.342,182.469,72.171,179.731,72.171z"/>
<path fill="#FFA2F5" d="M174.33,72.171h-23.296c-1.87,0-3.386,1.787-3.386,3.993v79.324l15.034-12.478l15.034,12.478V76.164
	C177.716,73.958,176.2,72.171,174.33,72.171z"/>
<path fill="#432D79" d="M233.871,310.76h-58.65c3.46-3.69,5.52-7.78,5.82-12.11h47.01
	C228.351,302.979,230.411,307.069,233.871,310.76z"/>
<path fill="#07D1E2" d="M241.046,291.449c0,3.972-2.946,7.19-6.581,7.19h-59.837c-3.635,0-6.582-3.219-6.582-7.19l0,0
	c0-3.971,2.947-7.189,6.582-7.189h59.837C238.1,284.26,241.046,287.479,241.046,291.449L241.046,291.449z"/>
</svg>
