<?xml version="1.0" encoding="UTF-8" standalone="no"?>
<!-- Generator: Adobe Illustrator 16.0.0, SVG Export Plug-In . SVG Version: 6.00 Build 0)  -->

<svg
   xmlns:dc="http://purl.org/dc/elements/1.1/"
   xmlns:cc="http://creativecommons.org/ns#"
   xmlns:rdf="http://www.w3.org/1999/02/22-rdf-syntax-ns#"
   xmlns:svg="http://www.w3.org/2000/svg"
   xmlns="http://www.w3.org/2000/svg"
   xmlns:sodipodi="http://sodipodi.sourceforge.net/DTD/sodipodi-0.dtd"
   xmlns:inkscape="http://www.inkscape.org/namespaces/inkscape"
   version="1.1"
   id="Capa_1"
   x="0px"
   y="0px"
   width="32px"
   height="32px"
   viewBox="0 0 32 32"
   style="enable-background:new 0 0 32 32;"
   xml:space="preserve"
   sodipodi:docname="events.svg"
   inkscape:version="0.92.1 r"><metadata
     id="metadata41"><rdf:RDF><cc:Work
         rdf:about=""><dc:format>image/svg+xml</dc:format><dc:type
           rdf:resource="http://purl.org/dc/dcmitype/StillImage" /><dc:title></dc:title></cc:Work></rdf:RDF></metadata><defs
     id="defs39" /><sodipodi:namedview
     pagecolor="#ffffff"
     bordercolor="#666666"
     borderopacity="1"
     objecttolerance="10"
     gridtolerance="10"
     guidetolerance="10"
     inkscape:pageopacity="0"
     inkscape:pageshadow="2"
     inkscape:window-width="1920"
     inkscape:window-height="937"
     id="namedview37"
     showgrid="false"
     inkscape:zoom="16"
     inkscape:cx="15.03154"
     inkscape:cy="14.662101"
     inkscape:window-x="1920"
     inkscape:window-y="27"
     inkscape:window-maximized="1"
     inkscape:current-layer="g4" /><g
     id="g4"><path
       d="M24.651,0l0.034,0.725c0.021,0.416-0.084,0.734-0.317,0.975c-0.314,0.322-0.824,0.484-1.252,0.557   c0.016-0.371,0.031-0.745,0.043-1.132c-0.619,0-3.891,0-7.155,0c-0.003,0-0.005,0-0.008,0c-3.265,0-6.535,0-7.154,0   C8.854,1.512,8.87,1.886,8.886,2.257C8.457,2.184,7.948,2.021,7.633,1.699C7.398,1.459,7.293,1.14,7.314,0.724L7.349,0H3.558   l0.013,0.704c0.21,12.111,5.337,15.043,7.684,15.75l-0.385,0.547L12,17.798l0.386-0.551c0.772,1.438,1.445,2.356,1.732,3.09h-0.524   v1.097h0.64c-0.259,1.694-3.684,3.656-3.684,3.656v1.034H9.71V32h6.285h0.008h6.285v-5.876H21.45V25.09   c0,0-3.426-1.962-3.685-3.656h0.64v-1.097h-0.523c0.287-0.733,0.96-1.649,1.732-3.09l0.385,0.551l1.132-0.797l-0.386-0.547   c2.348-0.707,7.475-3.639,7.685-15.75L28.442,0H24.651z M4.971,1.383h1.011C6.077,1.88,6.302,2.317,6.648,2.67   C7.34,3.375,8.333,3.588,8.965,3.654c0.369,5.33,1.352,8.889,2.373,11.373C9.329,14.291,5.323,11.553,4.971,1.383z M20.661,15.027   c1.021-2.484,2.004-6.043,2.373-11.373c0.633-0.066,1.625-0.279,2.316-0.984c0.348-0.353,0.572-0.79,0.667-1.287h1.011   C26.678,11.553,22.671,14.291,20.661,15.027z"
       id="path2"
       style="fill:#432d79;fill-opacity:1" /><path
       style="fill:#ffa2f5;stroke:#07d1e2;stroke-width:1px;stroke-linecap:butt;stroke-linejoin:miter;stroke-opacity:1;fill-opacity:1"
       d="m 12.135593,1.6217357 v 4.3104676 l 0.949153,0.9657254 0.940678,-0.9572508 0.966101,0.9661017 0.864407,-0.8644068 0.06493,-4.4258676 z"
       id="path4537"
       inkscape:connector-curvature="0"
       sodipodi:nodetypes="cccccccc" /></g><g
     id="g6" /><g
     id="g8" /><g
     id="g10" /><g
     id="g12" /><g
     id="g14" /><g
     id="g16" /><g
     id="g18" /><g
     id="g20" /><g
     id="g22" /><g
     id="g24" /><g
     id="g26" /><g
     id="g28" /><g
     id="g30" /><g
     id="g32" /><g
     id="g34" /></svg>