<?xml version="1.0" encoding="UTF-8" standalone="no"?>
<!-- Created with Inkscape (http://www.inkscape.org/) -->

<svg
   xmlns:dc="http://purl.org/dc/elements/1.1/"
   xmlns:cc="http://creativecommons.org/ns#"
   xmlns:rdf="http://www.w3.org/1999/02/22-rdf-syntax-ns#"
   xmlns:svg="http://www.w3.org/2000/svg"
   xmlns="http://www.w3.org/2000/svg"
   xmlns:sodipodi="http://sodipodi.sourceforge.net/DTD/sodipodi-0.dtd"
   xmlns:inkscape="http://www.inkscape.org/namespaces/inkscape"
   width="500"
   height="200"
   viewBox="0 0 132.29166 52.916747"
   version="1.1"
   id="grassland-fore"
   inkscape:version="0.92.1 r"
   sodipodi:docname="grassland-fore.svg">
  <defs
     id="defs819" />
  <sodipodi:namedview
     id="base"
     pagecolor="#ffffff"
     bordercolor="#666666"
     borderopacity="1.0"
     inkscape:pageopacity="0.0"
     inkscape:pageshadow="2"
     inkscape:zoom="2"
     inkscape:cx="455.3803"
     inkscape:cy="99.108811"
     inkscape:document-units="mm"
     inkscape:current-layer="layer3"
     showgrid="false"
     units="px"
     inkscape:window-width="1920"
     inkscape:window-height="937"
     inkscape:window-x="1920"
     inkscape:window-y="27"
     inkscape:window-maximized="1"
     showguides="false">
    <inkscape:grid
       type="xygrid"
       id="grid4502" />
  </sodipodi:namedview>
  <metadata
     id="metadata822">
    <rdf:RDF>
      <cc:Work
         rdf:about="">
        <dc:format>image/svg+xml</dc:format>
        <dc:type
           rdf:resource="http://purl.org/dc/dcmitype/StillImage" />
        <dc:title />
      </cc:Work>
    </rdf:RDF>
  </metadata>
  <g
     inkscape:label="Layer 1"
     inkscape:groupmode="layer"
     id="layer1"
     transform="translate(0,-244.08332)" />
  <g
     inkscape:groupmode="layer"
     id="layer3"
     inkscape:label="Back">
    <path
       style="fill:#869b9f;fill-opacity:1;stroke:none;stroke-width:0.30557781px;stroke-linecap:butt;stroke-linejoin:miter;stroke-opacity:1"
       d="m 0.15266111,31.770148 27.95846989,-1.890665 4.15774,-4.033412 34.017909,1.008369 9.449421,-7.058481 25.702419,0.504166 30.99408,9.075169 0.23624,23.948391 -132.58512289,-0.03944 z"
       id="path5618"
       inkscape:connector-curvature="0"
       sodipodi:nodetypes="cccccccccc" />
  </g>
  <g
     inkscape:groupmode="layer"
     id="layer4"
     inkscape:label="Middle">
    <path
       style="fill:#8a4712;fill-opacity:1;stroke:none;stroke-width:0.30174962px;stroke-linecap:butt;stroke-linejoin:miter;stroke-opacity:1"
       d="m -0.13373872,25.708666 31.13694872,1.73815 21.7825,3.650123 24.588833,-2.08578 19.777976,3.99774 28.597881,3.997753 6.94902,0.34763 0.11452,15.871558 H 8.5095695e-5 Z"
       id="path4522"
       inkscape:connector-curvature="0" />
    <path
       style="fill:#000000;stroke-width:0.01232127;fill-opacity:1"
       d="m 100.74557,11.317578 c -1.629971,0.700911 -3.796511,-0.03646 -5.044041,1.308544 -1.85474,0.619817 -4.6573,1.656971 -4.99919,3.673536 0.75739,1.179142 1.4068,1.654376 -0.27101,2.307712 -1.74028,0.918058 -0.48938,2.992362 1.2157,2.284213 0.79207,1.013732 4.30215,-0.16581 3.14669,1.929798 -2.07527,1.315809 -1.48288,3.838402 -2.29979,5.788158 -0.65641,1.584123 -0.0732,3.286749 -0.31308,4.950927 0.0824,2.826485 3.4362,0.269942 2.16916,-1.476481 -0.43118,-2.645214 0.27009,-5.274511 0.83681,-7.836676 0.56586,-1.98338 2.91778,-1.861866 4.56424,-1.887281 1.064181,-0.37361 3.408221,0.374123 2.867421,-1.025947 1.59786,-0.566913 3.8987,1.759352 4.31072,-1.079634 1.95106,-0.404542 -2.17865,-3.319645 -0.0244,-2.95948 1.02491,0.501332 0.53208,-2.051968 -0.23379,-2.443637 -0.72662,-2.143505 -3.05665,-2.308791 -4.7862,-3.175963 -0.36761,-0.15346 -0.74686,-0.284011 -1.1392,-0.357789 z m 0.1028,0.06276 c -0.0241,0.154335 -0.0997,-0.161377 0,0 z m 1.48413,10.68233 c -0.0105,0.120913 0.10602,-0.118043 0,0 z"
       id="path3807"
       inkscape:connector-curvature="0"
       sodipodi:nodetypes="cccccccccccccccccccccc" />
  </g>
  <g
     inkscape:groupmode="layer"
     id="layer2"
     inkscape:label="Fore">
    <path
       style="fill:#ce7e1b;fill-opacity:1;stroke:none;stroke-width:0.32301232px;stroke-linecap:butt;stroke-linejoin:miter;stroke-opacity:1"
       d="M -0.07828144,32.685915 34.6225,32.967296 l 49.519407,0.199553 38.549673,-4.250123 10.12236,3.769189 V 53.22584 H 8.5095692e-5 Z"
       id="path1373"
       inkscape:connector-curvature="0"
       sodipodi:nodetypes="cccccccc" />
  </g>
</svg>
