<?xml version="1.0" encoding="utf-8"?>
<!-- Generator: Adobe Illustrator 16.0.3, SVG Export Plug-In . SVG Version: 6.00 Build 0)  -->
<!DOCTYPE svg PUBLIC "-//W3C//DTD SVG 1.1//EN" "http://www.w3.org/Graphics/SVG/1.1/DTD/svg11.dtd">
<svg version="1.1" id="Layer_1" xmlns="http://www.w3.org/2000/svg" xmlns:xlink="http://www.w3.org/1999/xlink" x="0px" y="0px"
	 width="410px" height="410px" viewBox="0 0 410 410" enable-background="new 0 0 410 410" xml:space="preserve">
<circle fill="#6F3FDC" cx="318.378" cy="212.653" r="16.316"/>
<path fill="#33225C" d="M310.106,222.06l-97.441-20.717c-4.107-0.249-8.352-1.107-12.537-2.67
	c-18.237-6.821-28.585-24.219-23.118-38.856c1.073-2.869,2.678-5.428,4.703-7.609c8.276-8.995,23.571-12.025,38.231-6.536
	c4.185,1.563,7.95,3.702,11.213,6.212l87.124,48.293c6.896,2.571,11.047,8.791,10.004,14.446c-0.1,0.535-0.241,1.073-0.438,1.604
	C325.586,222.268,317.635,224.883,310.106,222.06z"/>
<path fill="#432D79" d="M328.285,214.623c-3.663,3.146-9.749,3.862-15.417,1.393l-96.178-25.986
	c-4.088-0.449-8.283-1.542-12.375-3.342c-15.607-6.823-24.745-21.379-22.603-34.48c8.276-8.995,23.571-12.025,38.231-6.536
	c4.185,1.563,7.95,3.702,11.213,6.212l87.124,48.293C325.178,202.749,329.328,208.968,328.285,214.623z"/>
<path fill="#33225C" d="M320.929,325.703c0,0.379-0.016,0.757-0.063,1.134c-2.016,20.649-59.063,37.202-129.149,37.202
	c-71.174,0-128.882-17.073-129.213-38.146c-0.016-0.063-0.016-0.126-0.016-0.189c0-21.184,57.85-38.351,129.229-38.351
	C263.078,287.353,320.929,304.52,320.929,325.703z"/>
<path fill="#432D79" d="M320.929,321.963c0,0.378-0.016,0.757-0.063,1.134c-14.001,16.822-66.369,29.326-128.819,29.326
	c-63.614,0-116.771-12.979-129.543-30.271c-0.016-0.063-0.016-0.126-0.016-0.189c0-21.184,57.85-38.351,129.229-38.351
	C263.078,283.612,320.929,300.779,320.929,321.963z"/>
<path fill="#432D79" d="M327.012,307.98c0,11.524-9.344,20.868-20.869,20.868H77.955c-11.525,0-20.869-9.344-20.869-20.868l0,0
	c0-11.525,9.343-20.869,20.869-20.869h228.188C317.668,287.111,327.012,296.455,327.012,307.98L327.012,307.98z"/>
<path fill="#6F3FDC" d="M311.148,287.116c0,19.562-53.472,35.438-119.433,35.438c-65.977,0-119.448-15.876-119.448-35.438
	c0-13.372,24.979-25.026,61.834-31.043c17.089-2.805,36.713-4.395,57.614-4.395c25.516,0,49.171,2.378,68.575,6.41
	C291.052,264.498,311.148,275.114,311.148,287.116z"/>
<path fill="#432D79" d="M260.291,258.089c-2.378,3.923-6.206,6.804-10.868,7.671l-3.812,0.707
	c1.056,5.576-2.283,10.868-7.448,11.846l-71.49,13.418c-5.15,0.961-10.19-2.757-11.23-8.332l-3.811,0.725
	c-9.135,1.701-18.033-4.882-19.892-14.741c-0.897-4.836,0.063-9.561,2.362-13.309c17.089-2.805,36.713-4.395,57.614-4.395
	C217.231,251.679,240.887,254.057,260.291,258.089z"/>
<path fill="#6F3FDC" d="M199.131,236.911c-19.1,3.587-36.611-4.313-39.113-17.644l-16.812-89.551
	c-2.501-13.33,10.952-27.044,30.051-30.628l0,0c19.1-3.586,36.611,4.314,39.114,17.646l16.81,89.551
	C231.683,219.615,218.23,233.328,199.131,236.911L199.131,236.911z"/>
<path fill="#05A3B0" d="M228.887,209.233l-66.824,12.554c-22.507,4.213-44.168-10.597-48.397-33.104l-0.796-4.245l-1.758-9.405
	c-4.229-22.507,10.581-44.167,33.088-48.397l66.823-12.539c20.947-3.931,41.165,8.625,47.269,28.56
	c0.464,1.477,0.829,2.985,1.129,4.545l2.57,13.632C266.203,183.343,251.392,205.021,228.887,209.233z"/>
<path fill="#05A3B0" d="M252.389,252.272l-3.748,0.714c0.959,5.091-2.406,10.018-7.499,10.962l-70.654,13.269
	c-5.092,0.962-10-2.404-10.962-7.512l-3.749,0.712c-9.04,1.69-17.731-4.245-19.421-13.284c-0.084-0.433-0.15-0.848-0.183-1.278
	c-0.945-8.558,4.86-16.519,13.451-18.144l96.628-18.129c7.479-1.394,14.727,2.421,17.944,8.922c0.697,1.345,1.195,2.805,1.477,4.364
	C267.365,241.889,261.428,250.58,252.389,252.272z"/>
<path fill="#07D1E2" d="M250.729,246.634l-3.746,0.712c0.96,5.093-2.406,10.018-7.498,10.964l-70.655,13.269
	c-5.091,0.962-10-2.405-10.963-7.514l-3.748,0.713c-7.48,1.395-14.729-2.422-17.946-8.923c-0.945-8.558,4.86-16.519,13.451-18.144
	l96.628-18.129c7.479-1.394,14.727,2.421,17.944,8.922C265.141,237.063,259.336,245.024,250.729,246.634z"/>
<path fill="#05A3B0" d="M223.114,98.226l-96.628,18.128c-9.022,1.692-17.729-4.246-19.421-13.269
	c-0.067-0.298-0.1-0.614-0.149-0.912c-1.145-8.708,4.693-16.867,13.434-18.51l3.749-0.714c-0.962-5.091,2.404-10,7.513-10.963
	l70.637-13.268c0.582-0.1,1.162-0.166,1.727-0.166c4.428,0,8.393,3.151,9.237,7.68l3.748-0.714
	c7.149-1.343,14.081,2.089,17.498,8.061c0.913,1.576,1.576,3.334,1.924,5.225C238.075,87.827,232.137,96.517,223.114,98.226z"/>
<path fill="#07D1E2" d="M221.041,92.104l-96.628,18.146c-7.131,1.343-14.081-2.106-17.498-8.077
	c-1.145-8.708,4.693-16.867,13.434-18.51l3.749-0.714c-0.962-5.091,2.404-10,7.513-10.963l70.637-13.268
	c0.582-0.1,1.162-0.166,1.727-0.166c4.428,0,8.393,3.151,9.237,7.68l3.748-0.714c7.149-1.343,14.081,2.089,17.498,8.061
	C235.619,82.286,229.765,90.463,221.041,92.104z"/>
<path fill="#07D1E2" d="M226.929,200.393l-66.807,12.539c-20.931,3.931-41.149-8.607-47.252-28.493l-1.758-9.405
	c-4.229-22.507,10.581-44.167,33.088-48.397l66.823-12.539c20.947-3.931,41.165,8.625,47.269,28.56l1.741,9.337
	C264.264,174.502,249.436,196.163,226.929,200.393z"/>
</svg>
