<?xml version="1.0" encoding="UTF-8" standalone="no"?>
<!-- Created with Inkscape (http://www.inkscape.org/) -->

<svg
   xmlns:dc="http://purl.org/dc/elements/1.1/"
   xmlns:cc="http://creativecommons.org/ns#"
   xmlns:rdf="http://www.w3.org/1999/02/22-rdf-syntax-ns#"
   xmlns:svg="http://www.w3.org/2000/svg"
   xmlns="http://www.w3.org/2000/svg"
   xmlns:sodipodi="http://sodipodi.sourceforge.net/DTD/sodipodi-0.dtd"
   xmlns:inkscape="http://www.inkscape.org/namespaces/inkscape"
   width="108mm"
   height="115mm"
   viewBox="0 0 108 115"
   version="1.1"
   id="moonsvg"
   inkscape:version="0.92.1 r"
   sodipodi:docname="moon.svg">
  <defs
     id="defs5268" />
  <sodipodi:namedview
     id="base"
     pagecolor="#ffffff"
     bordercolor="#666666"
     borderopacity="1.0"
     inkscape:pageopacity="0.0"
     inkscape:pageshadow="2"
     inkscape:zoom="0.35"
     inkscape:cx="467.08239"
     inkscape:cy="224.39119"
     inkscape:document-units="mm"
     inkscape:current-layer="layer1"
     showgrid="false"
     inkscape:window-width="960"
     inkscape:window-height="937"
     inkscape:window-x="2880"
     inkscape:window-y="27"
     inkscape:window-maximized="0" />
  <metadata
     id="metadata5271">
    <rdf:RDF>
      <cc:Work
         rdf:about="">
        <dc:format>image/svg+xml</dc:format>
        <dc:type
           rdf:resource="http://purl.org/dc/dcmitype/StillImage" />
        <dc:title></dc:title>
      </cc:Work>
    </rdf:RDF>
  </metadata>
  <g
     inkscape:label="Layer 1"
     inkscape:groupmode="layer"
     id="layer1"
     transform="translate(0,-182)">
    <g
       transform="matrix(0.26458333,0,0,0.26458333,0,-0.12982113)"
       id="44d35f67-b430-411f-86d7-e3907b27b642"
       data-name="Layer 2">
      <path
         class="3a454608-17a9-4fb3-919b-d323d061d504"
         d="m 408.88,907.75 q 0,92.39 -58.5,153.83 -58.5,61.44 -146.66,61.42 -88.17,0 -145.94,-62 Q 0.01,999 0,904.61 0,814.5 57.78,754.49 q 57.78,-60.01 144.8,-60 89.29,0 147.8,60.45 58.51,60.45 58.5,152.81 z"
         id="path85"
         inkscape:connector-curvature="0"
         style="fill:#f0eff3" />
      <path
         class="1800350f-8806-4205-8f93-ada20dcb0019"
         d="m 204.44,801.7 q 0,26 -16.45,43.26 -16.45,17.26 -41.24,17.28 -24.79,0 -41,-17.44 -16.21,-17.44 -16.25,-44 0,-25.34 16.25,-42.21 16.25,-16.87 40.72,-16.88 25.11,0 41.56,17 16.45,17 16.41,42.99 z"
         id="path87"
         inkscape:connector-curvature="0"
         style="fill:#ffffff" />
      <path
         class="1800350f-8806-4205-8f93-ada20dcb0019"
         d="m 333.5,783.91 q -20.5,21.3 -20.5,53.28 0,33.5 20.51,55.51 20.51,22.01 51.8,22 a 75.57,75.57 0 0 0 23.54,-3.58 c 0,-1.13 0,-2.25 0,-3.38 q 0,-83.82 -48.15,-141.35 a 67.42,67.42 0 0 0 -27.2,17.52 z"
         id="path89"
         inkscape:connector-curvature="0"
         style="fill:#ffffff" />
      <path
         class="1800350f-8806-4205-8f93-ada20dcb0019"
         d="m 230.63,1121.51 q 9.46,-16 9.48,-37.08 0,-29.64 -18.77,-49 -18.77,-19.36 -47.41,-19.43 -27.92,0 -46.46,19.26 -18.54,19.26 -18.54,48.16 a 85.05,85.05 0 0 0 1.9,18.29 q 41.23,21.3 92.89,21.3 a 234.74,234.74 0 0 0 26.91,-1.5 z"
         id="path91"
         inkscape:connector-curvature="0"
         style="fill:#ffffff" />
    </g>
  </g>
</svg>
