<?xml version="1.0" encoding="utf-8"?>
<!-- Generator: Adobe Illustrator 16.0.3, SVG Export Plug-In . SVG Version: 6.00 Build 0)  -->
<!DOCTYPE svg PUBLIC "-//W3C//DTD SVG 1.1//EN" "http://www.w3.org/Graphics/SVG/1.1/DTD/svg11.dtd">
<svg version="1.1" id="Layer_1" xmlns="http://www.w3.org/2000/svg" xmlns:xlink="http://www.w3.org/1999/xlink" x="0px" y="0px"
	 width="576px" height="576px" viewBox="0 0 576 576" enable-background="new 0 0 576 576" xml:space="preserve">
<path fill="#FFA2F5" d="M168.386,454.354c0,16.627-16.41,30.104-36.652,30.104l0,0c-20.242,0-36.652-13.477-36.652-30.104V319.089
	c0-16.625,16.41-30.1,36.652-30.1l0,0c20.243,0,36.652,13.476,36.652,30.1V454.354z"/>
<path fill="none" stroke="#F283E6" stroke-width="23" stroke-linecap="round" stroke-miterlimit="10" d="M65.033,166.404
	c5.231,25.275,29.962,41.527,55.238,36.295c20.221-4.185,33.221-23.97,29.036-44.192c-3.348-16.176-19.175-26.575-35.352-23.229
	c-12.941,2.679-21.261,15.341-18.583,28.283c2.143,10.354,12.272,17.009,22.625,14.867c8.283-1.714,13.607-9.818,11.894-18.101
	c-1.372-6.626-7.855-10.886-14.48-9.515c-5.302,1.097-8.709,6.283-7.612,11.584c0.877,4.24,5.026,6.966,9.268,6.089
	c3.392-0.702,5.573-4.022,4.872-7.414"/>
<path fill="#FFA2F5" d="M470.665,454.354c0,16.627-16.408,30.104-36.652,30.104l0,0c-20.242,0-36.652-13.477-36.652-30.104V319.089
	c0-16.625,16.41-30.1,36.652-30.1l0,0c20.244,0,36.652,13.476,36.652,30.1V454.354z"/>
<path fill="#FFA2F5" d="M344.044,515.192c0,19.445-19.192,35.207-42.867,35.207l0,0c-23.672,0-42.866-15.762-42.866-35.207V356.993
	c0-19.442,19.194-35.206,42.866-35.206l0,0c23.675,0,42.867,15.763,42.867,35.206V515.192z"/>
<ellipse fill="#FFA2F5" cx="278.722" cy="275.563" rx="203.792" ry="203.787"/>
<path fill="#FFA2F5" d="M453.154,170.135c0,0,28.594,48.323,33.633,69.482c5.037,21.16,6.717,26.552,35.098,35.946l-18.041,101.705
	c0,0-27.228,0.887-30.203,11.719c-2.976,10.834-2.976,29.977-2.976,29.977l-103.782-24.182L453.154,170.135z"/>
<path fill="#6F3FDC" d="M549.04,325.381c4.388,23.073-8.008,44.811-27.688,48.557l-76.217,14.496
	c-19.68,3.742-39.191-11.928-43.581-35l-3.311-17.407c-4.39-23.071,8.008-44.812,27.687-48.554l76.216-14.498
	c19.68-3.742,39.192,11.925,43.581,34.999L549.04,325.381z"/>
<path fill="#432D79" d="M452.984,355.558c0.443,3.182-1.78,6.123-4.963,6.564l0,0c-3.184,0.441-6.121-1.781-6.563-4.963
	l-5.676-40.855c-0.443-3.186,1.779-6.123,4.962-6.564l0,0c3.185-0.441,6.12,1.779,6.563,4.962L452.984,355.558z"/>
<path fill="#432D79" d="M511.424,345.482c0.443,3.182-1.78,6.123-4.963,6.564l0,0c-3.184,0.441-6.121-1.781-6.563-4.962
	l-5.676-40.855c-0.443-3.184,1.78-6.123,4.962-6.564l0,0c3.185-0.441,6.12,1.779,6.563,4.962L511.424,345.482z"/>
<path fill="#432D79" d="M381.997,259.83c0,6.955-5.64,12.593-12.595,12.593l0,0c-6.956,0-12.597-5.638-12.597-12.593v-10.64
	c0-6.957,5.641-12.595,12.597-12.595l0,0c6.955,0,12.595,5.639,12.595,12.595V259.83z"/>
<path fill="#432D79" d="M469.068,237.884c0,6.957-4.756,12.595-10.625,12.595l0,0c-5.868,0-10.624-5.639-10.624-12.595v-10.64
	c0-6.955,4.756-12.595,10.624-12.595l0,0c5.869,0,10.625,5.64,10.625,12.595V237.884z"/>
<path fill="#FFA2F5" d="M360.272,88.761c0,0,44.897,14.831,62.028,6.77c17.128-8.062,30.228-35.426,48.364-23.759
	s4.87,30.812-1.597,47.941c-6.464,17.129-4.448,39.296-6.464,46.349s-7.81,28.213-28.592,27.205
	C413.231,192.26,356.685,119.273,360.272,88.761z"/>
<path fill="none" stroke="#432D79" stroke-width="23" stroke-linecap="round" stroke-miterlimit="10" d="M238.721,110.438
	c0,0,53.361-14.333,98.813,12.991"/>
<path fill="#FFA2F5" d="M209.878,188.187c15.575-19.851,27.663-15.036,31.493-33.131s7.164-53.234,17.2-56.197
	c10.037-2.963,27.207-5.927,43.093,26.671c15.886,32.599,22.696,52.496,30.356,55.883s19.578,26.247,0,35.562
	C312.443,226.291,196.26,205.545,209.878,188.187z"/>
<path fill="#6F3FDC" d="M238.721,201.364c26.5,16.157,72.046-3.058,77.843-10.111c5.796-7.053-0.829-17.129-10.938-36.804
	c-10.111-19.676-20.531-44.811-35.231-46.826c-14.7-2.016-10.142,30.228-11.798,53.402S238.721,201.364,238.721,201.364z"/>
<path fill="#6F3FDC" d="M473.014,92.844c0,0-3.66-13.77-13.494-6.381c-9.833,7.389-24.479,28.718-31.606,39.296
	c-7.127,10.579-3.285,22.229-3.285,22.229s11.778,8.756,28.17,20.091c0,0,5.686-38.708,10.265-52.731
	C467.641,101.325,472.253,99.771,473.014,92.844z"/>
</svg>
