<svg id="planetsvg" xmlns="http://www.w3.org/2000/svg" width="1560.11" height="1560.11" viewBox="0 0 1560.11 1560.11"><defs><style>.ae20bc64-b3f5-4288-8f20-54593f6dadf0{fill:#05b0f1;}.\30 53bbe35-7900-4225-ab38-c5946a325477{fill:#07d1e2;}.d8b1084e-8dcc-4ec1-bb94-90a0d72fa8a3{fill:#432d79;}.\33 e5ca408-5d50-46a0-8a03-806a7fcd7b27{fill:#6f3fdc;}</style></defs><title>planet</title><g id="e40a3d99-c4df-4048-8c59-32dae22a0765" data-name="Layer 2"><g id="5ea2979c-aa5a-4ca9-b802-4e382b35a842" data-name="Layer 3"><rect class="ae20bc64-b3f5-4288-8f20-54593f6dadf0" x="771.19" y="170.59" width="17.72" height="35.41"/><polygon class="053bbe35-7900-4225-ab38-c5946a325477" points="779.76 34.55 724.06 173.09 836.05 173.09 779.76 34.55"/><polygon class="053bbe35-7900-4225-ab38-c5946a325477" points="779.81 0 734.05 113.83 826.06 113.83 779.81 0"/><rect class="ae20bc64-b3f5-4288-8f20-54593f6dadf0" x="254.39" y="474.43" width="7.56" height="41.18" transform="translate(-300.04 484.33) rotate(-61.36)"/><polygon class="053bbe35-7900-4225-ab38-c5946a325477" points="170.05 447.1 225.65 514.65 257.1 457.06 170.05 447.1"/><polygon class="053bbe35-7900-4225-ab38-c5946a325477" points="152.3 437.37 197.98 492.87 223.82 445.56 152.3 437.37"/><rect class="053bbe35-7900-4225-ab38-c5946a325477" x="315.41" y="406.28" width="7.7" height="23.66" transform="translate(-206.8 418.49) rotate(-52.68)"/><polygon class="053bbe35-7900-4225-ab38-c5946a325477" points="262.79 375.21 295.97 430.94 325.46 392.25 262.79 375.21"/><polygon class="053bbe35-7900-4225-ab38-c5946a325477" points="250.87 366.1 278.13 411.88 302.37 380.1 250.87 366.1"/><rect class="ae20bc64-b3f5-4288-8f20-54593f6dadf0" x="573.16" y="216.71" width="12.33" height="24.65" transform="translate(-43.58 221.09) rotate(-20.84)"/><polygon class="053bbe35-7900-4225-ab38-c5946a325477" points="541.06 129.07 539.13 233 611.99 205.27 541.06 129.07"/><polygon class="053bbe35-7900-4225-ab38-c5946a325477" points="532.54 106.59 530.96 191.98 590.82 169.19 532.54 106.59"/><rect class="ae20bc64-b3f5-4288-8f20-54593f6dadf0" x="664.14" y="181.48" width="5.22" height="35.41" transform="translate(-26.7 141.22) rotate(-11.86)"/><circle class="053bbe35-7900-4225-ab38-c5946a325477" cx="661.63" cy="174.84" r="22.66" transform="translate(-21.81 139.65) rotate(-11.86)"/><rect class="ae20bc64-b3f5-4288-8f20-54593f6dadf0" x="411.15" y="297.51" width="5.22" height="35.41" transform="translate(-106.15 331.13) rotate(-39.06)"/><circle class="053bbe35-7900-4225-ab38-c5946a325477" cx="402.31" cy="301.1" r="16.95" transform="translate(-99.81 320.77) rotate(-39.06)"/><rect class="ae20bc64-b3f5-4288-8f20-54593f6dadf0" x="179.43" y="762.35" width="17.72" height="35.41" transform="translate(-591.76 968.35) rotate(-90)"/><polygon class="053bbe35-7900-4225-ab38-c5946a325477" points="34.55 780.35 173.09 836.05 173.09 724.06 34.55 780.35"/><polygon class="053bbe35-7900-4225-ab38-c5946a325477" points="0 780.29 113.83 826.06 113.83 734.05 0 780.29"/><rect class="ae20bc64-b3f5-4288-8f20-54593f6dadf0" x="491.25" y="1281.35" width="7.56" height="41.18" transform="translate(305.44 2681.85) rotate(-151.36)"/><polygon class="053bbe35-7900-4225-ab38-c5946a325477" points="447.1 1390.06 514.65 1334.46 457.06 1303.01 447.1 1390.06"/><polygon class="053bbe35-7900-4225-ab38-c5946a325477" points="437.37 1407.81 492.87 1362.12 445.56 1336.28 437.37 1407.81"/><rect class="053bbe35-7900-4225-ab38-c5946a325477" x="414.26" y="1229.02" width="7.7" height="23.66" transform="translate(-1.74 2481.1) rotate(-142.68)"/><polygon class="053bbe35-7900-4225-ab38-c5946a325477" points="375.21 1297.32 430.94 1264.13 392.25 1234.64 375.21 1297.32"/><polygon class="053bbe35-7900-4225-ab38-c5946a325477" points="366.1 1309.23 411.88 1281.97 380.1 1257.74 366.1 1309.23"/><rect class="ae20bc64-b3f5-4288-8f20-54593f6dadf0" x="222.87" y="968.45" width="12.33" height="24.65" transform="translate(-606.1 1543.75) rotate(-110.84)"/><polygon class="053bbe35-7900-4225-ab38-c5946a325477" points="129.07 1019.04 233 1020.97 205.27 948.11 129.07 1019.04"/><polygon class="053bbe35-7900-4225-ab38-c5946a325477" points="106.59 1027.57 191.98 1029.15 169.19 969.28 106.59 1027.57"/><rect class="ae20bc64-b3f5-4288-8f20-54593f6dadf0" x="196.57" y="875.66" width="5.22" height="35.41" transform="translate(-634.2 1271.82) rotate(-101.86)"/><circle class="053bbe35-7900-4225-ab38-c5946a325477" cx="174.84" cy="898.47" r="22.66" transform="translate(-180.85 55.08) rotate(-11.86)"/><rect class="ae20bc64-b3f5-4288-8f20-54593f6dadf0" x="312.6" y="1128.64" width="5.22" height="35.41" transform="translate(-376.37 2113.4) rotate(-129.06)"/><circle class="053bbe35-7900-4225-ab38-c5946a325477" cx="301.1" cy="1157.8" r="16.95" transform="translate(-662.21 448.44) rotate(-39.06)"/><rect class="ae20bc64-b3f5-4288-8f20-54593f6dadf0" x="771.19" y="1354.11" width="17.72" height="35.41" transform="translate(1560.11 2743.62) rotate(180)"/><polygon class="053bbe35-7900-4225-ab38-c5946a325477" points="780.35 1525.56 836.05 1387.02 724.06 1387.02 780.35 1525.56"/><polygon class="053bbe35-7900-4225-ab38-c5946a325477" points="780.29 1560.11 826.06 1446.28 734.05 1446.28 780.29 1560.11"/><rect class="ae20bc64-b3f5-4288-8f20-54593f6dadf0" x="1298.16" y="1044.49" width="7.56" height="41.18" transform="translate(2860.74 432.95) rotate(118.64)"/><polygon class="053bbe35-7900-4225-ab38-c5946a325477" points="1390.06 1113.01 1334.46 1045.45 1303.01 1103.04 1390.06 1113.01"/><polygon class="053bbe35-7900-4225-ab38-c5946a325477" points="1407.81 1122.73 1362.12 1067.23 1336.28 1114.55 1407.81 1122.73"/><rect class="053bbe35-7900-4225-ab38-c5946a325477" x="1237" y="1130.17" width="7.7" height="23.66" transform="translate(2901.33 847.65) rotate(127.32)"/><polygon class="053bbe35-7900-4225-ab38-c5946a325477" points="1297.32 1184.89 1264.13 1129.17 1234.64 1167.85 1297.32 1184.89"/><polygon class="053bbe35-7900-4225-ab38-c5946a325477" points="1309.23 1194.01 1281.97 1148.22 1257.74 1180.01 1309.23 1194.01"/><rect class="ae20bc64-b3f5-4288-8f20-54593f6dadf0" x="974.61" y="1318.75" width="12.33" height="24.65" transform="translate(2370.93 2226.14) rotate(159.16)"/><polygon class="053bbe35-7900-4225-ab38-c5946a325477" points="1019.04 1431.03 1020.97 1327.1 948.11 1354.84 1019.04 1431.03"/><polygon class="053bbe35-7900-4225-ab38-c5946a325477" points="1027.57 1453.52 1029.15 1368.13 969.28 1390.91 1027.57 1453.52"/><rect class="ae20bc64-b3f5-4288-8f20-54593f6dadf0" x="890.75" y="1343.22" width="5.22" height="35.41" transform="translate(2047.25 2509.29) rotate(168.14)"/><circle class="053bbe35-7900-4225-ab38-c5946a325477" cx="898.47" cy="1385.27" r="22.66" transform="translate(-265.42 214.13) rotate(-11.86)"/><rect class="ae20bc64-b3f5-4288-8f20-54593f6dadf0" x="1143.74" y="1227.19" width="5.22" height="35.41" transform="translate(2820.9 1489.33) rotate(140.94)"/><circle class="053bbe35-7900-4225-ab38-c5946a325477" cx="1157.8" cy="1259.01" r="16.95" transform="translate(-534.54 1010.83) rotate(-39.06)"/><rect class="ae20bc64-b3f5-4288-8f20-54593f6dadf0" x="1362.95" y="762.35" width="17.72" height="35.41" transform="translate(2151.86 -591.76) rotate(90)"/><polygon class="053bbe35-7900-4225-ab38-c5946a325477" points="1525.56 779.76 1387.02 724.06 1387.02 836.05 1525.56 779.76"/><polygon class="053bbe35-7900-4225-ab38-c5946a325477" points="1560.11 779.81 1446.28 734.05 1446.28 826.06 1560.11 779.81"/><rect class="ae20bc64-b3f5-4288-8f20-54593f6dadf0" x="1061.3" y="237.57" width="7.56" height="41.18" transform="translate(254.06 -478.92) rotate(28.64)"/><polygon class="053bbe35-7900-4225-ab38-c5946a325477" points="1113.01 170.05 1045.45 225.65 1103.04 257.1 1113.01 170.05"/><polygon class="053bbe35-7900-4225-ab38-c5946a325477" points="1122.73 152.3 1067.23 197.98 1114.55 223.82 1122.73 152.3"/><rect class="053bbe35-7900-4225-ab38-c5946a325477" x="1138.15" y="307.43" width="7.7" height="23.66" transform="translate(427.43 -627.03) rotate(37.32)"/><polygon class="053bbe35-7900-4225-ab38-c5946a325477" points="1184.89 262.79 1129.17 295.97 1167.85 325.46 1184.89 262.79"/><polygon class="053bbe35-7900-4225-ab38-c5946a325477" points="1194.01 250.87 1148.22 278.13 1180.01 302.37 1194.01 250.87"/><rect class="ae20bc64-b3f5-4288-8f20-54593f6dadf0" x="1324.91" y="567.01" width="12.33" height="24.65" transform="translate(1398.96 -870.76) rotate(69.16)"/><polygon class="053bbe35-7900-4225-ab38-c5946a325477" points="1431.03 541.06 1327.1 539.13 1354.84 611.99 1431.03 541.06"/><polygon class="053bbe35-7900-4225-ab38-c5946a325477" points="1453.52 532.54 1368.13 530.96 1390.91 590.82 1453.52 532.54"/><rect class="ae20bc64-b3f5-4288-8f20-54593f6dadf0" x="1358.31" y="649.04" width="5.22" height="35.41" transform="translate(1733.86 -802.12) rotate(78.14)"/><circle class="053bbe35-7900-4225-ab38-c5946a325477" cx="1385.27" cy="661.63" r="22.66" transform="translate(-106.38 298.7) rotate(-11.86)"/><rect class="ae20bc64-b3f5-4288-8f20-54593f6dadf0" x="1242.29" y="396.06" width="5.22" height="35.41" transform="translate(781.83 -813.65) rotate(50.94)"/><circle class="053bbe35-7900-4225-ab38-c5946a325477" cx="1259.01" cy="402.31" r="16.95" transform="translate(27.86 883.16) rotate(-39.06)"/><circle class="d8b1084e-8dcc-4ec1-bb94-90a0d72fa8a3" cx="780.05" cy="780.05" r="578.26"/><circle class="3e5ca408-5d50-46a0-8a03-806a7fcd7b27" cx="788.49" cy="583.44" r="92.19"/><path class="3e5ca408-5d50-46a0-8a03-806a7fcd7b27" d="M780.05,201.79a583.66,583.66,0,0,0-75.54,4.9c25.21,87.24,105.66,151,201,151A208.82,208.82,0,0,0,1069,279.06,575.6,575.6,0,0,0,780.05,201.79Z"/><circle class="3e5ca408-5d50-46a0-8a03-806a7fcd7b27" cx="538.37" cy="1066.51" r="157.23"/><path class="3e5ca408-5d50-46a0-8a03-806a7fcd7b27" d="M1017.85,817.23c0,115.55,93.67,209.22,209.22,209.22a208.48,208.48,0,0,0,84.23-17.66,581,581,0,0,0,30.49-366.54A208.23,208.23,0,0,0,1227.07,608C1111.52,608,1017.85,701.67,1017.85,817.23Z"/><path class="3e5ca408-5d50-46a0-8a03-806a7fcd7b27" d="M351.93,391.33A576.15,576.15,0,0,0,201.79,780.05q0,25.15,2.12,49.76a231.1,231.1,0,0,0,72.74,11.68C404.42,841.49,508,737.91,508,610.14,508,508.73,442.74,422.57,351.93,391.33Z"/><path class="3e5ca408-5d50-46a0-8a03-806a7fcd7b27" d="M1125.35,1243.94A202.25,202.25,0,0,0,983,1185.59c-101.8,0-186.09,75-200.68,172.71A575.65,575.65,0,0,0,1125.35,1243.94Z"/></g></g></svg>
