<svg xmlns="http://www.w3.org/2000/svg" width="281.74" height="206.27" viewBox="0 0 281.74 206.27"><defs><style>.bdb1b548-283e-41df-a6b6-6b4b523a5c66{fill:#ffa2f5;}.\36 258297c-c902-49b0-8b9e-94021299b136{fill:#07d1e2;}.f5277001-83ff-4cad-af55-f666e384528a{fill:#05b0f1;}</style></defs><title>shapes-10</title><g id="1d5fcdba-5778-45db-94f0-483a99ce8d7a" data-name="Layer 2"><g id="0d34b80c-1686-42f2-b832-7ea907500e22" data-name="Layer 1"><polygon class="bdb1b548-283e-41df-a6b6-6b4b523a5c66" points="111.48 16.58 168.36 158.07 53.99 158.07 111.48 16.58"/><polygon class="6258297c-c902-49b0-8b9e-94021299b136" points="125.9 206.27 94.5 127.71 62.88 206.27 125.9 206.27"/><polygon class="6258297c-c902-49b0-8b9e-94021299b136" points="63.02 206.27 31.61 127.71 0 206.27 63.02 206.27"/><path class="f5277001-83ff-4cad-af55-f666e384528a" d="M281.74,69.3A29.44,29.44,0,0,1,261.51,61a27.88,27.88,0,0,1-8.6-20.89q0-12.94,8.58-21.28c5.36-5.21,12.12-7.94,20.26-8.27V0q-17.18.37-28.57,11.36-11.76,11.39-11.77,28.77,0,16.94,11.69,28.19,11.49,11.06,28.65,11.24Z"/></g></g></svg>