<svg xmlns="http://www.w3.org/2000/svg" width="385.98" height="176.52" viewBox="0 0 385.98 176.52"><defs><style>.\30 87b4ada-39d3-459f-9962-bb8619989bdd{fill:#07d1e2;}.f2accde7-d418-4035-8a08-5875422c0c62{fill:#4e3192;}.\35 217222d-ba0e-4e41-a999-522525aa9839{fill:#05b0f1;}</style></defs><title>shapes-9</title><g id="06114db9-0b1c-4c18-9e06-eea7f4378b2f" data-name="Layer 2"><g id="51b5d63c-3bc2-4d7d-aded-e71d5f07fc70" data-name="Layer 1"><path class="087b4ada-39d3-459f-9962-bb8619989bdd" d="M379.47,60.39a6.47,6.47,0,0,1,4.65,1.77A5.86,5.86,0,0,1,386,66.59,5.77,5.77,0,0,1,384.1,71a6.66,6.66,0,0,1-4.72,1.75A6.28,6.28,0,0,1,374.84,71,5.82,5.82,0,0,1,373,66.62a6,6,0,0,1,1.83-4.47A6.37,6.37,0,0,1,379.47,60.39Z"/><polygon class="f2accde7-d418-4035-8a08-5875422c0c62" points="59.7 148.49 0 0 120.03 0 59.7 148.49"/><polygon class="5217222d-ba0e-4e41-a999-522525aa9839" points="120.56 85.43 86.21 0 155.27 0 120.56 85.43"/><polygon class="f2accde7-d418-4035-8a08-5875422c0c62" points="208.35 137.05 202.34 137.05 186.77 176.52 192.78 176.52 208.35 137.05"/><polygon class="f2accde7-d418-4035-8a08-5875422c0c62" points="237.25 137.05 231.23 137.05 215.66 176.52 221.67 176.52 237.25 137.05"/></g></g></svg>