<svg xmlns="http://www.w3.org/2000/svg" width="2243.31" height="1123.02" viewBox="0 0 2243.31 1123.02"><defs><style>.dbb33c53-2fea-49cb-9ac2-9846b0a694cc{fill:#ffa2f5;}.bfdf687d-b352-435d-864b-34287f7f5689{fill:#07d1e2;}.c6a918a0-0986-41d2-9a78-eac32a24fa1f{fill:#6f3fdc;}.\37 2f874d0-f503-499d-88cd-17189c45097a{fill:#05b0f1;}.e71e5dd1-8d2f-48e4-9122-113a540ea776{fill:#007acd;}.\33 a454608-17a9-4fb3-919b-d323d061d504{fill:#f0eff3;}.\31 800350f-8806-4205-8f93-ada20dcb0019{fill:#fff;}</style></defs><title>space-3</title><g id="fe2e339d-07c8-4689-8335-391d2aa87b9b" data-name="Layer 2"><g id="aa4649b0-d3c4-4ce0-9b51-66a586f58f54" data-name="Isolation Mode"><polygon class="dbb33c53-2fea-49cb-9ac2-9846b0a694cc" points="1859.19 56.53 1881.2 111.27 1836.95 111.27 1859.19 56.53"/><polygon class="dbb33c53-2fea-49cb-9ac2-9846b0a694cc" points="1858.96 286.09 1836.95 231.35 1881.2 231.35 1858.96 286.09"/><polygon class="dbb33c53-2fea-49cb-9ac2-9846b0a694cc" points="1973.86 171.43 1919.11 193.44 1919.11 149.18 1973.86 171.43"/><polygon class="dbb33c53-2fea-49cb-9ac2-9846b0a694cc" points="1744.29 171.19 1799.03 149.18 1799.03 193.44 1744.29 171.19"/><polygon class="bfdf687d-b352-435d-864b-34287f7f5689" points="1777.99 90.06 1832.26 113.21 1800.97 144.5 1777.99 90.06"/><polygon class="bfdf687d-b352-435d-864b-34287f7f5689" points="1940.16 252.56 1885.88 229.41 1917.17 198.12 1940.16 252.56"/><polygon class="bfdf687d-b352-435d-864b-34287f7f5689" points="1940.32 90.23 1917.17 144.5 1885.88 113.21 1940.32 90.23"/><polygon class="bfdf687d-b352-435d-864b-34287f7f5689" points="1777.83 252.39 1800.97 198.12 1832.26 229.41 1777.83 252.39"/><path class="c6a918a0-0986-41d2-9a78-eac32a24fa1f" d="M1924.24,171q0,29.19-18.48,48.6T1859.42,239q-27.86,0-46.11-19.59T1795,170q0-28.47,18.26-47.43t45.75-19q28.21,0,46.7,19.1T1924.24,171Z"/><path class="72f874d0-f503-499d-88cd-17189c45097a" d="M2235.72,94.78a7.56,7.56,0,0,1,5.42,2.06,6.84,6.84,0,0,1,2.17,5.17,6.73,6.73,0,0,1-2.19,5.15,7.77,7.77,0,0,1-5.51,2,7.33,7.33,0,0,1-5.29-2,6.79,6.79,0,0,1-2.12-5.11,7,7,0,0,1,2.13-5.21A7.44,7.44,0,0,1,2235.72,94.78Zm.08,1.91a5.45,5.45,0,0,0-4,1.51,5.14,5.14,0,0,0-1.55,3.85,5,5,0,0,0,1.56,3.78,5.78,5.78,0,0,0,7.82,0,5.15,5.15,0,0,0,1.57-3.83,5,5,0,0,0-1.57-3.76A5.34,5.34,0,0,0,2235.8,96.69Z"/><path class="bfdf687d-b352-435d-864b-34287f7f5689" d="M1279.06,58l-15.9-15.9,15.9-15.9,15.9,15.9Zm-9.55-15.9,9.55,9.55,9.55-9.55-9.55-9.55Z"/><path class="bfdf687d-b352-435d-864b-34287f7f5689" d="M1984.66,411.81l-5.11-5.11,5.11-5.11,5.11,5.11Zm-3.07-5.11,3.07,3.07,3.07-3.07-3.07-3.07Z"/><path class="bfdf687d-b352-435d-864b-34287f7f5689" d="M1967.6,1084.14l-5.11-5.11,5.11-5.11,5.11,5.11Zm-3.07-5.11,3.07,3.07,3.07-3.07-3.07-3.07Z"/><polygon class="72f874d0-f503-499d-88cd-17189c45097a" points="2221.98 587.27 2219.11 587.27 2211.68 606.1 2214.55 606.1 2221.98 587.27"/><polygon class="72f874d0-f503-499d-88cd-17189c45097a" points="2235.76 587.27 2232.89 587.27 2225.46 606.1 2228.33 606.1 2235.76 587.27"/><polygon class="72f874d0-f503-499d-88cd-17189c45097a" points="486.96 659.79 484.09 659.79 476.67 678.62 479.53 678.62 486.96 659.79"/><polygon class="72f874d0-f503-499d-88cd-17189c45097a" points="500.74 659.79 497.88 659.79 490.45 678.62 493.31 678.62 500.74 659.79"/><path class="bfdf687d-b352-435d-864b-34287f7f5689" d="M801.15,202.91a5,5,0,0,1-3.6-1.37,4.55,4.55,0,0,1-1.44-3.44,4.47,4.47,0,0,1,1.45-3.42,5.16,5.16,0,0,1,3.66-1.35,4.87,4.87,0,0,1,3.52,1.35,4.51,4.51,0,0,1,1.41,3.39,4.61,4.61,0,0,1-1.42,3.46A4.94,4.94,0,0,1,801.15,202.91Z"/><path class="bfdf687d-b352-435d-864b-34287f7f5689" d="M151.54,252.94a7.56,7.56,0,0,1-5.42-2.06,6.84,6.84,0,0,1-2.17-5.17,6.73,6.73,0,0,1,2.19-5.15,7.77,7.77,0,0,1,5.51-2,7.33,7.33,0,0,1,5.29,2,6.79,6.79,0,0,1,2.12,5.11,7,7,0,0,1-2.13,5.21A7.44,7.44,0,0,1,151.54,252.94Zm-.08-1.91a5.45,5.45,0,0,0,4-1.51,5.14,5.14,0,0,0,1.55-3.85,5,5,0,0,0-1.56-3.78,5.78,5.78,0,0,0-7.82,0,5.15,5.15,0,0,0-1.57,3.83,5,5,0,0,0,1.57,3.76A5.34,5.34,0,0,0,151.46,251Z"/><path class="bfdf687d-b352-435d-864b-34287f7f5689" d="M409,346.15l5.11,5.11L409,356.38l-5.11-5.11Zm3.07,5.11L409,348.2l-3.07,3.07,3.07,3.07Z"/><path class="bfdf687d-b352-435d-864b-34287f7f5689" d="M1733.82,453.33l6.22,6.22-6.22,6.22-6.22-6.22Zm3.74,6.22-3.74-3.74-3.74,3.74,3.74,3.74Z"/><path class="bfdf687d-b352-435d-864b-34287f7f5689" d="M34.89,347.79l14.77,14.77L34.89,377.33,20.12,362.56Zm8.87,14.77-8.87-8.87L26,362.56l8.87,8.87Z"/><path class="dbb33c53-2fea-49cb-9ac2-9846b0a694cc" d="M274.67,997.72l14.77,14.77-14.77,14.77-14.77-14.77Zm8.87,14.77-8.87-8.87-8.87,8.87,8.87,8.87Z"/><path class="bfdf687d-b352-435d-864b-34287f7f5689" d="M2187.9,278.71l7.39,7.38-7.39,7.39-7.38-7.39Zm4.44,7.38-4.44-4.44-4.44,4.44,4.44,4.44Z"/><path class="dbb33c53-2fea-49cb-9ac2-9846b0a694cc" d="M852,493.78a7,7,0,0,1,5,1.91,6.34,6.34,0,0,1,2,4.79,6.24,6.24,0,0,1-2,4.77,7.21,7.21,0,0,1-5.11,1.89,6.79,6.79,0,0,1-4.91-1.89,6.3,6.3,0,0,1-2-4.73,6.44,6.44,0,0,1,2-4.83A6.89,6.89,0,0,1,852,493.78Z"/><path class="dbb33c53-2fea-49cb-9ac2-9846b0a694cc" d="M513.61,0a2.79,2.79,0,0,1,2,.76,2.53,2.53,0,0,1,.8,1.91,2.49,2.49,0,0,1-.81,1.9,2.87,2.87,0,0,1-2,.75,2.71,2.71,0,0,1-2-.75,2.51,2.51,0,0,1-.78-1.89,2.57,2.57,0,0,1,.79-1.93A2.75,2.75,0,0,1,513.61,0Z"/><path class="dbb33c53-2fea-49cb-9ac2-9846b0a694cc" d="M599.58,1116.84a2.79,2.79,0,0,1,2,.76,2.53,2.53,0,0,1,.8,1.91,2.49,2.49,0,0,1-.81,1.9,2.87,2.87,0,0,1-2,.75,2.71,2.71,0,0,1-2-.75,2.51,2.51,0,0,1-.78-1.89,2.57,2.57,0,0,1,.79-1.93A2.75,2.75,0,0,1,599.58,1116.84Z"/><path class="bfdf687d-b352-435d-864b-34287f7f5689" d="M615.48,940.58A12.93,12.93,0,0,1,606.2,937a11.7,11.7,0,0,1-3.71-8.85,11.51,11.51,0,0,1,3.74-8.8,13.3,13.3,0,0,1,9.43-3.49,12.54,12.54,0,0,1,9.06,3.49,11.62,11.62,0,0,1,3.62,8.73A11.88,11.88,0,0,1,624.7,937,12.72,12.72,0,0,1,615.48,940.58Zm-.14-3.27a9.33,9.33,0,0,0,6.78-2.58,8.79,8.79,0,0,0,2.66-6.59,8.64,8.64,0,0,0-2.67-6.47,9.9,9.9,0,0,0-13.39.05,8.8,8.8,0,0,0-2.69,6.56,8.6,8.6,0,0,0,2.69,6.43A9.14,9.14,0,0,0,615.34,937.31Z"/><path class="bfdf687d-b352-435d-864b-34287f7f5689" d="M1293.37,502.2a6.9,6.9,0,0,1-5-1.88,6.25,6.25,0,0,1-2-4.72,6.15,6.15,0,0,1,2-4.7,7.1,7.1,0,0,1,5-1.86,6.69,6.69,0,0,1,4.83,1.86,6.2,6.2,0,0,1,1.93,4.66,6.34,6.34,0,0,1-1.95,4.76A6.79,6.79,0,0,1,1293.37,502.2Zm-.07-1.75a5,5,0,0,0,3.62-1.38,4.69,4.69,0,0,0,1.42-3.52,4.61,4.61,0,0,0-1.42-3.45,5.28,5.28,0,0,0-7.15,0,4.7,4.7,0,0,0-1.44,3.5,4.59,4.59,0,0,0,1.44,3.43A4.88,4.88,0,0,0,1293.3,500.46Z"/><path class="bfdf687d-b352-435d-864b-34287f7f5689" d="M430.23,502.23a6.9,6.9,0,0,1-5-1.88,6.25,6.25,0,0,1-2-4.72,6.15,6.15,0,0,1,2-4.7,7.1,7.1,0,0,1,5-1.86,6.69,6.69,0,0,1,4.83,1.86,6.2,6.2,0,0,1,1.93,4.66,6.34,6.34,0,0,1-1.95,4.76A6.79,6.79,0,0,1,430.23,502.23Zm-.07-1.75a5,5,0,0,0,3.62-1.38,4.69,4.69,0,0,0,1.42-3.52,4.61,4.61,0,0,0-1.42-3.45,5.28,5.28,0,0,0-7.15,0,4.7,4.7,0,0,0-1.44,3.5,4.59,4.59,0,0,0,1.44,3.43A4.88,4.88,0,0,0,430.16,500.49Z"/><path class="72f874d0-f503-499d-88cd-17189c45097a" d="M188.34,562.81a6.9,6.9,0,0,1-5-1.88,6.25,6.25,0,0,1-2-4.72,6.15,6.15,0,0,1,2-4.7,7.1,7.1,0,0,1,5-1.86,6.69,6.69,0,0,1,4.83,1.86,6.2,6.2,0,0,1,1.93,4.66,6.34,6.34,0,0,1-1.95,4.76A6.79,6.79,0,0,1,188.34,562.81Zm-.07-1.75a5,5,0,0,0,3.62-1.38,4.69,4.69,0,0,0,1.42-3.52,4.61,4.61,0,0,0-1.42-3.45,5.28,5.28,0,0,0-7.15,0,4.7,4.7,0,0,0-1.44,3.5,4.59,4.59,0,0,0,1.44,3.43A4.88,4.88,0,0,0,188.27,561.07Z"/><path class="72f874d0-f503-499d-88cd-17189c45097a" d="M265.82,14.14a6.9,6.9,0,0,1-5-1.88,6.25,6.25,0,0,1-2-4.72,6.15,6.15,0,0,1,2-4.7,7.1,7.1,0,0,1,5-1.86,6.69,6.69,0,0,1,4.83,1.86,6.2,6.2,0,0,1,1.93,4.66,6.34,6.34,0,0,1-1.95,4.76A6.79,6.79,0,0,1,265.82,14.14Zm-.07-1.75A5,5,0,0,0,269.37,11a4.69,4.69,0,0,0,1.42-3.52A4.61,4.61,0,0,0,269.37,4a5.28,5.28,0,0,0-7.15,0,4.7,4.7,0,0,0-1.44,3.5A4.59,4.59,0,0,0,262.22,11,4.88,4.88,0,0,0,265.75,12.39Z"/><path class="72f874d0-f503-499d-88cd-17189c45097a" d="M827.93,44A7.56,7.56,0,0,1,822.5,42a6.84,6.84,0,0,1-2.17-5.17,6.73,6.73,0,0,1,2.19-5.15,7.77,7.77,0,0,1,5.51-2,7.33,7.33,0,0,1,5.29,2,6.79,6.79,0,0,1,2.12,5.11A7,7,0,0,1,833.32,42,7.44,7.44,0,0,1,827.93,44Zm-.08-1.91a5.45,5.45,0,0,0,4-1.51,5.14,5.14,0,0,0,1.55-3.85A5,5,0,0,0,831.81,33,5.78,5.78,0,0,0,824,33a5.15,5.15,0,0,0-1.57,3.83A5,5,0,0,0,824,40.59,5.34,5.34,0,0,0,827.85,42.12Z"/><path class="dbb33c53-2fea-49cb-9ac2-9846b0a694cc" d="M2088.67,842.35l5.11,5.11-5.11,5.11-5.11-5.11Zm3.07,5.11-3.07-3.07-3.07,3.07,3.07,3.07Z"/><polygon class="72f874d0-f503-499d-88cd-17189c45097a" points="613.88 194.52 617.42 194.52 626.57 171.31 623.04 171.31 613.88 194.52"/><polygon class="72f874d0-f503-499d-88cd-17189c45097a" points="596.89 194.52 600.43 194.52 609.58 171.31 606.05 171.31 596.89 194.52"/><path class="e71e5dd1-8d2f-48e4-9122-113a540ea776" d="M2216.81,998.88a5,5,0,0,1,3.6,1.37,4.55,4.55,0,0,1,1.44,3.44,4.47,4.47,0,0,1-1.45,3.42,5.16,5.16,0,0,1-3.66,1.35,4.87,4.87,0,0,1-3.52-1.35,4.51,4.51,0,0,1-1.41-3.39,4.61,4.61,0,0,1,1.42-3.46A4.94,4.94,0,0,1,2216.81,998.88Z"/><path class="dbb33c53-2fea-49cb-9ac2-9846b0a694cc" d="M1907.91,755.08l-5.11-5.11,5.11-5.11L1913,750Zm-3.07-5.11,3.07,3.07L1911,750l-3.07-3.07Z"/></g><g id="44d35f67-b430-411f-86d7-e3907b27b642" data-name="Layer 2"><path class="3a454608-17a9-4fb3-919b-d323d061d504" d="M408.88,907.75q0,92.39-58.5,153.83T203.72,1123q-88.17,0-145.94-62T0,904.61Q0,814.5,57.78,754.49t144.8-60q89.29,0,147.8,60.45T408.88,907.75Z"/><path class="1800350f-8806-4205-8f93-ada20dcb0019" d="M204.44,801.7q0,26-16.45,43.26t-41.24,17.28q-24.79,0-41-17.44t-16.25-44q0-25.34,16.25-42.21t40.72-16.88q25.11,0,41.56,17T204.44,801.7Z"/><path class="1800350f-8806-4205-8f93-ada20dcb0019" d="M333.5,783.91Q313,805.21,313,837.19q0,33.5,20.51,55.51t51.8,22a75.57,75.57,0,0,0,23.54-3.58c0-1.13,0-2.25,0-3.38q0-83.82-48.15-141.35A67.42,67.42,0,0,0,333.5,783.91Z"/><path class="1800350f-8806-4205-8f93-ada20dcb0019" d="M230.63,1121.51q9.46-16,9.48-37.08,0-29.64-18.77-49T173.93,1016q-27.92,0-46.46,19.26t-18.54,48.16a85.05,85.05,0,0,0,1.9,18.29q41.23,21.3,92.89,21.3A234.74,234.74,0,0,0,230.63,1121.51Z"/></g></g></svg>