<?xml version="1.0" encoding="UTF-8" standalone="no"?>
<!-- Created with Inkscape (http://www.inkscape.org/) -->

<svg
   xmlns:dc="http://purl.org/dc/elements/1.1/"
   xmlns:cc="http://creativecommons.org/ns#"
   xmlns:rdf="http://www.w3.org/1999/02/22-rdf-syntax-ns#"
   xmlns:svg="http://www.w3.org/2000/svg"
   xmlns="http://www.w3.org/2000/svg"
   xmlns:sodipodi="http://sodipodi.sourceforge.net/DTD/sodipodi-0.dtd"
   xmlns:inkscape="http://www.inkscape.org/namespaces/inkscape"
   width="60.669998mm"
   height="60.669998mm"
   viewBox="0 0 60.669998 60.669998"
   version="1.1"
   id="sunsvg"
   inkscape:version="0.92.1 r"
   sodipodi:docname="SUN.svg">
  <defs
     id="defs4589" />
  <sodipodi:namedview
     id="base"
     pagecolor="#ffffff"
     bordercolor="#666666"
     borderopacity="1.0"
     inkscape:pageopacity="0.0"
     inkscape:pageshadow="2"
     inkscape:zoom="0.98994949"
     inkscape:cx="183.8236"
     inkscape:cy="267.55391"
     inkscape:document-units="mm"
     inkscape:current-layer="layer1"
     showgrid="false"
     inkscape:window-width="960"
     inkscape:window-height="937"
     inkscape:window-x="2880"
     inkscape:window-y="27"
     inkscape:window-maximized="0" />
  <metadata
     id="metadata4592">
    <rdf:RDF>
      <cc:Work
         rdf:about="">
        <dc:format>image/svg+xml</dc:format>
        <dc:type
           rdf:resource="http://purl.org/dc/dcmitype/StillImage" />
        <dc:title></dc:title>
      </cc:Work>
    </rdf:RDF>
  </metadata>
  <g
     inkscape:label="Layer 1"
     inkscape:groupmode="layer"
     id="layer1"
     transform="translate(0,-236.33)">
    <g
       transform="matrix(-0.26458333,0,0,0.26458442,522.25045,221.30505)"
       id="g5205">
      <polygon
         id="polygon8"
         points="1836.95,111.27 1859.19,56.53 1881.2,111.27 "
         class="dbb33c53-2fea-49cb-9ac2-9846b0a694cc"
         style="fill:#ffa2f5" />
      <polygon
         id="polygon10"
         points="1881.2,231.35 1858.96,286.09 1836.95,231.35 "
         class="dbb33c53-2fea-49cb-9ac2-9846b0a694cc"
         style="fill:#ffa2f5" />
      <polygon
         id="polygon12"
         points="1919.11,149.18 1973.86,171.43 1919.11,193.44 "
         class="dbb33c53-2fea-49cb-9ac2-9846b0a694cc"
         style="fill:#ffa2f5" />
      <polygon
         id="polygon14"
         points="1799.03,193.44 1744.29,171.19 1799.03,149.18 "
         class="dbb33c53-2fea-49cb-9ac2-9846b0a694cc"
         style="fill:#ffa2f5" />
      <polygon
         id="polygon16"
         points="1800.97,144.5 1777.99,90.06 1832.26,113.21 "
         class="bfdf687d-b352-435d-864b-34287f7f5689"
         style="fill:#07d1e2" />
      <polygon
         id="polygon18"
         points="1917.17,198.12 1940.16,252.56 1885.88,229.41 "
         class="bfdf687d-b352-435d-864b-34287f7f5689"
         style="fill:#07d1e2" />
      <polygon
         id="polygon20"
         points="1885.88,113.21 1940.32,90.23 1917.17,144.5 "
         class="bfdf687d-b352-435d-864b-34287f7f5689"
         style="fill:#07d1e2" />
      <polygon
         id="polygon22"
         points="1832.26,229.41 1777.83,252.39 1800.97,198.12 "
         class="bfdf687d-b352-435d-864b-34287f7f5689"
         style="fill:#07d1e2" />
      <path
         id="path24"
         d="m 1924.24,171 q 0,29.19 -18.48,48.6 -18.48,19.41 -46.34,19.4 -27.86,0 -46.11,-19.59 -18.25,-19.59 -18.31,-49.41 0,-28.47 18.26,-47.43 18.26,-18.96 45.75,-19 28.21,0 46.7,19.1 18.49,19.1 18.53,48.33 z"
         class="c6a918a0-0986-41d2-9a78-eac32a24fa1f"
         inkscape:connector-curvature="0"
         style="fill:#6f3fdc" />
    </g>
  </g>
</svg>
