<?xml version="1.0" encoding="UTF-8" standalone="no"?>
<!-- Generator: Adobe Illustrator 19.0.0, SVG Export Plug-In . SVG Version: 6.00 Build 0)  -->

<svg
   xmlns:dc="http://purl.org/dc/elements/1.1/"
   xmlns:cc="http://creativecommons.org/ns#"
   xmlns:rdf="http://www.w3.org/1999/02/22-rdf-syntax-ns#"
   xmlns:svg="http://www.w3.org/2000/svg"
   xmlns="http://www.w3.org/2000/svg"
   xmlns:sodipodi="http://sodipodi.sourceforge.net/DTD/sodipodi-0.dtd"
   xmlns:inkscape="http://www.inkscape.org/namespaces/inkscape"
   version="1.1"
   id="Capa_1"
   x="0px"
   y="0px"
   viewBox="0 0 60 60"
   style="enable-background:new 0 0 60 60;"
   xml:space="preserve"
   sodipodi:docname="tech.svg"
   inkscape:version="0.92.1 r"><metadata
     id="metadata4745"><rdf:RDF><cc:Work
         rdf:about=""><dc:format>image/svg+xml</dc:format><dc:type
           rdf:resource="http://purl.org/dc/dcmitype/StillImage" /></cc:Work></rdf:RDF></metadata><defs
     id="defs4743" /><sodipodi:namedview
     pagecolor="#ffffff"
     bordercolor="#666666"
     borderopacity="1"
     objecttolerance="10"
     gridtolerance="10"
     guidetolerance="10"
     inkscape:pageopacity="0"
     inkscape:pageshadow="2"
     inkscape:window-width="1920"
     inkscape:window-height="937"
     id="namedview4741"
     showgrid="false"
     inkscape:zoom="7.8666665"
     inkscape:cx="27.912898"
     inkscape:cy="25.002425"
     inkscape:window-x="1920"
     inkscape:window-y="27"
     inkscape:window-maximized="1"
     inkscape:current-layer="g4708" /><g
     id="g4708"
     style="stroke:#ffffff;stroke-opacity:0;fill:#07d1e2;fill-opacity:1"><path
       d="M10.5,7C8.019,7,6,9.019,6,11.5S8.019,16,10.5,16s4.5-2.019,4.5-4.5S12.981,7,10.5,7z M10.5,14C9.122,14,8,12.879,8,11.5   S9.122,9,10.5,9s2.5,1.121,2.5,2.5S11.878,14,10.5,14z"
       id="path4662"
       style="stroke:#ffffff;stroke-opacity:0;fill:#07d1e2;fill-opacity:1" /><circle
       cx="50"
       cy="10"
       r="1"
       id="circle4664"
       style="stroke:#ffffff;stroke-opacity:0;fill:#ffa2f5;fill-opacity:1" /><circle
       cx="46"
       cy="10"
       r="1"
       id="circle4666"
       style="stroke:#ffffff;stroke-opacity:0;fill:#ffa2f5;fill-opacity:1" /><circle
       cx="52"
       cy="13"
       r="1"
       id="circle4668"
       style="stroke:#ffffff;stroke-opacity:0;fill:#ffa2f5;fill-opacity:1" /><circle
       cx="48"
       cy="13"
       r="1"
       id="circle4670"
       style="stroke:#ffffff;stroke-opacity:0;fill:#ffa2f5;fill-opacity:1" /><circle
       cx="42"
       cy="10"
       r="1"
       id="circle4672"
       style="stroke:#ffffff;stroke-opacity:0;fill:#ffa2f5;fill-opacity:1" /><circle
       cx="44"
       cy="13"
       r="1"
       id="circle4674"
       style="stroke:#ffffff;stroke-opacity:0;fill:#ffa2f5;fill-opacity:1" /><circle
       cx="38"
       cy="10"
       r="1"
       id="circle4676"
       style="stroke:#ffffff;stroke-opacity:0;fill:#ffa2f5;fill-opacity:1" /><circle
       cx="40"
       cy="13"
       r="1"
       id="circle4678"
       style="stroke:#ffffff;stroke-opacity:0;fill:#ffa2f5;fill-opacity:1" /><circle
       cx="34"
       cy="10"
       r="1"
       id="circle4680"
       style="stroke:#ffffff;stroke-opacity:0;fill:#ffa2f5;fill-opacity:1" /><circle
       cx="36"
       cy="13"
       r="1"
       id="circle4682"
       style="stroke:#ffffff;stroke-opacity:0;fill:#ffa2f5;fill-opacity:1" /><path
       d="M60,17.392V5.608C60,3.067,57.933,1,55.392,1H4.608C2.067,1,0,3.067,0,5.608v11.783C0,18.86,0.703,20.156,1.777,21   C0.703,21.844,0,23.14,0,24.608v11.783C0,38.933,2.067,41,4.608,41H29v8.101C27.044,49.5,25.5,51.044,25.101,53H1   c-0.552,0-1,0.447-1,1s0.448,1,1,1h24.101c0.465,2.279,2.484,4,4.899,4s4.434-1.721,4.899-4H59c0.552,0,1-0.447,1-1s-0.448-1-1-1   H34.899C34.5,51.044,32.956,49.5,31,49.101V41h24.392C57.933,41,60,38.933,60,36.392V24.608c0-1.469-0.703-2.764-1.777-3.608   C59.297,20.156,60,18.86,60,17.392z M33,54c0,1.654-1.346,3-3,3s-3-1.346-3-3s1.346-3,3-3S33,52.346,33,54z M58,24.608v11.783   C58,37.83,56.83,39,55.392,39H4.608C3.17,39,2,37.83,2,36.392V24.608C2,23.17,3.17,22,4.608,22h50.783C56.83,22,58,23.17,58,24.608   z M4.608,20C3.17,20,2,18.83,2,17.392V5.608C2,4.17,3.17,3,4.608,3h50.783C56.83,3,58,4.17,58,5.608v11.783   C58,18.83,56.83,20,55.392,20H4.608z"
       id="path4684"
       style="stroke:#ffffff;stroke-opacity:0;fill:#7649df;fill-opacity:1" /><path
       d="M10.5,35c2.481,0,4.5-2.019,4.5-4.5S12.981,26,10.5,26S6,28.019,6,30.5S8.019,35,10.5,35z M10.5,28   c1.378,0,2.5,1.121,2.5,2.5S11.878,33,10.5,33S8,31.879,8,30.5S9.122,28,10.5,28z"
       id="path4686"
       style="stroke:#ffffff;stroke-opacity:0;fill:#07d1e2;fill-opacity:1" /><circle
       cx="50"
       cy="29"
       r="1"
       id="circle4688"
       style="stroke:#ffffff;stroke-opacity:0;fill:#ffa2f5;fill-opacity:1" /><circle
       cx="46"
       cy="29"
       r="1"
       id="circle4690"
       style="stroke:#ffffff;stroke-opacity:0;fill:#ffa2f5;fill-opacity:1" /><circle
       cx="52"
       cy="32"
       r="1"
       id="circle4692"
       style="stroke:#ffffff;stroke-opacity:0;fill:#ffa2f5;fill-opacity:1" /><circle
       cx="48"
       cy="32"
       r="1"
       id="circle4694"
       style="stroke:#ffffff;stroke-opacity:0;fill:#ffa2f5;fill-opacity:1" /><circle
       cx="42"
       cy="29"
       r="1"
       id="circle4696"
       style="stroke:#ffffff;stroke-opacity:0;fill:#ffa2f5;fill-opacity:1" /><circle
       cx="44"
       cy="32"
       r="1"
       id="circle4698"
       style="stroke:#ffffff;stroke-opacity:0;fill:#ffa2f5;fill-opacity:1" /><circle
       cx="38"
       cy="29"
       r="1"
       id="circle4700"
       style="stroke:#ffffff;stroke-opacity:0;fill:#ffa2f5;fill-opacity:1" /><circle
       cx="40"
       cy="32"
       r="1"
       id="circle4702"
       style="stroke:#ffffff;stroke-opacity:0;fill:#ffa2f5;fill-opacity:1" /><circle
       cx="34"
       cy="29"
       r="1"
       id="circle4704"
       style="stroke:#ffffff;stroke-opacity:0;fill:#ffa2f5;fill-opacity:1" /><circle
       cx="36"
       cy="32"
       r="1"
       id="circle4706"
       style="stroke:#ffffff;stroke-opacity:0;fill:#ffa2f5;fill-opacity:1" /></g><g
     id="g4710" /><g
     id="g4712" /><g
     id="g4714" /><g
     id="g4716" /><g
     id="g4718" /><g
     id="g4720" /><g
     id="g4722" /><g
     id="g4724" /><g
     id="g4726" /><g
     id="g4728" /><g
     id="g4730" /><g
     id="g4732" /><g
     id="g4734" /><g
     id="g4736" /><g
     id="g4738" /></svg>