<?xml version="1.0" encoding="UTF-8" standalone="no"?>
<!-- Created with Inkscape (http://www.inkscape.org/) -->

<svg
   xmlns:dc="http://purl.org/dc/elements/1.1/"
   xmlns:cc="http://creativecommons.org/ns#"
   xmlns:rdf="http://www.w3.org/1999/02/22-rdf-syntax-ns#"
   xmlns:svg="http://www.w3.org/2000/svg"
   xmlns="http://www.w3.org/2000/svg"
   xmlns:sodipodi="http://sodipodi.sourceforge.net/DTD/sodipodi-0.dtd"
   xmlns:inkscape="http://www.inkscape.org/namespaces/inkscape"
   version="1.1"
   id="svg4504"
   xml:space="preserve"
   width="546.66669"
   height="546.66669"
   viewBox="0 0 546.66669 546.66669"
   sodipodi:docname="tech.svg"
   inkscape:version="0.92.1 r"><metadata
     id="metadata4510"><rdf:RDF><cc:Work
         rdf:about=""><dc:format>image/svg+xml</dc:format><dc:type
           rdf:resource="http://purl.org/dc/dcmitype/StillImage" /><dc:title></dc:title></cc:Work></rdf:RDF></metadata><defs
     id="defs4508"><clipPath
       clipPathUnits="userSpaceOnUse"
       id="clipPath4520"><path
         d="M 0,410 H 410 V 0 H 0 Z"
         id="path4518"
         inkscape:connector-curvature="0" /></clipPath></defs><sodipodi:namedview
     pagecolor="#ffffff"
     bordercolor="#666666"
     borderopacity="1"
     objecttolerance="10"
     gridtolerance="10"
     guidetolerance="10"
     inkscape:pageopacity="0"
     inkscape:pageshadow="2"
     inkscape:window-width="1920"
     inkscape:window-height="937"
     id="namedview4506"
     showgrid="false"
     inkscape:zoom="0.24640946"
     inkscape:cx="708.23153"
     inkscape:cy="542.32059"
     inkscape:window-x="1920"
     inkscape:window-y="27"
     inkscape:window-maximized="1"
     inkscape:current-layer="g4516" /><g
     id="g4512"
     inkscape:groupmode="layer"
     inkscape:label="Webmaster_Server"
     transform="matrix(1.3333333,0,0,-1.3333333,0,546.66667)"><g
       id="g4514"><g
         id="g4516"
         clip-path="url(#clipPath4520)"><g
           id="g4522"
           transform="translate(317.9902,320.1802)"><path
             d="m 0,0 v -29.4 c 0,-13.81 -11.19,-25 -25,-25 h -177.47 c -13.8,0 -25,11.19 -25,25 V 0 c 0,13.8 11.2,25 25,25 H -25 C -12.271,25 -1.76,15.48 -0.21,3.18 -0.07,2.14 0,1.08 0,0"
             style="fill:#432d79;fill-opacity:1;fill-rule:nonzero;stroke:none"
             id="path4524"
             inkscape:connector-curvature="0" /></g><g
           id="g4526"
           transform="translate(317.7803,323.3599)"><path
             d="m 0,0 v -24.92 c 0,-13.8 -11.2,-25 -25,-25 h -177.47 c -12.73,0 -23.24,9.52 -24.79,21.82 v 24.92 c 0,13.8 11.2,25 25,25 H -24.79 C -12.061,21.82 -1.55,12.3 0,0"
             style="fill:#6f3fdc;fill-opacity:1;fill-rule:nonzero;stroke:none"
             id="path4528"
             inkscape:connector-curvature="0" /></g><g
           id="g4530"
           transform="translate(317.9902,240.7773)"><path
             d="m 0,0 v -29.4 c 0,-13.81 -11.19,-25 -25,-25 h -177.47 c -13.8,0 -25,11.19 -25,25 V 0 c 0,13.8 11.2,25 25,25 H -25 C -12.271,25 -1.76,15.48 -0.21,3.18 -0.07,2.14 0,1.08 0,0"
             style="fill:#432d79;fill-opacity:1;fill-rule:nonzero;stroke:none"
             id="path4532"
             inkscape:connector-curvature="0" /></g><g
           id="g4534"
           transform="translate(317.7803,243.957)"><path
             d="m 0,0 v -24.92 c 0,-13.8 -11.2,-25 -25,-25 h -177.47 c -12.73,0 -23.24,9.52 -24.79,21.82 v 24.92 c 0,13.8 11.2,25 25,25 H -24.79 C -12.061,21.82 -1.55,12.3 0,0"
             style="fill:#6f3fdc;fill-opacity:1;fill-rule:nonzero;stroke:none"
             id="path4536"
             inkscape:connector-curvature="0" /></g><g
           id="g4538"
           transform="translate(147.5,305.48)"><path
             d="m 0,0 c 0,-10.36 -8.39,-18.75 -18.75,-18.75 -10.36,0 -18.75,8.39 -18.75,18.75 0,0.96 0.07,1.9 0.22,2.83 1.35,9.01 9.13,15.92 18.53,15.92 9.4,0 17.18,-6.91 18.53,-15.92 C -0.07,1.9 0,0.96 0,0"
             style="fill:#05a3b0;fill-opacity:1;fill-rule:nonzero;stroke:none"
             id="path4540"
             inkscape:connector-curvature="0" /></g><g
           id="g4542"
           transform="translate(147.2798,308.3101)"><path
             d="m 0,0 c -1.35,-9.01 -9.13,-15.92 -18.53,-15.92 -9.4,0 -17.18,6.91 -18.53,15.92 1.35,9.01 9.13,15.92 18.53,15.92 C -9.13,15.92 -1.35,9.01 0,0"
             style="fill:#07d1e2;fill-opacity:1;fill-rule:nonzero;stroke:none"
             id="path4544"
             inkscape:connector-curvature="0" /></g><g
           id="g4546"
           transform="translate(147.5,226.0771)"><path
             d="m 0,0 c 0,-10.36 -8.39,-18.75 -18.75,-18.75 -10.36,0 -18.75,8.39 -18.75,18.75 0,0.96 0.07,1.9 0.22,2.83 1.35,9.01 9.13,15.92 18.53,15.92 9.4,0 17.18,-6.91 18.53,-15.92 C -0.07,1.9 0,0.96 0,0"
             style="fill:#05a3b0;fill-opacity:1;fill-rule:nonzero;stroke:none"
             id="path4548"
             inkscape:connector-curvature="0" /></g><g
           id="g4550"
           transform="translate(147.2798,228.9072)"><path
             d="m 0,0 c -1.35,-9.01 -9.13,-15.92 -18.53,-15.92 -9.4,0 -17.18,6.91 -18.53,15.92 1.35,9.01 9.13,15.92 18.53,15.92 C -9.13,15.92 -1.35,9.01 0,0"
             style="fill:#07d1e2;fill-opacity:1;fill-rule:nonzero;stroke:none"
             id="path4552"
             inkscape:connector-curvature="0" /></g><g
           id="g4554"
           transform="translate(204.2578,127.2148)"><path
             d="m 0,0 c -4.741,0 -8.583,3.843 -8.583,8.583 0,4.741 3.842,8.584 8.583,8.584 4.74,0 8.583,-3.843 8.583,-8.584 C 8.583,3.843 4.74,0 0,0 M 108.038,15.021 H 52.673 18.419 C 16.448,20.656 11.975,25.11 6.33,27.051 v 2.189 7.667 22.478 c 0,3.555 -2.883,6.437 -6.438,6.437 -3.556,0 -6.438,-2.882 -6.438,-6.437 v -22.478 0 -9.936 c -5.542,-1.98 -9.929,-6.387 -11.873,-11.95 h -32.439 -55.366 c -3.555,0 -6.437,-2.881 -6.437,-6.437 0,-3.556 2.882,-6.438 6.437,-6.438 h 55.366 32.438 c 2.663,-7.617 9.894,-13.09 18.42,-13.09 8.525,0 15.756,5.473 18.419,13.09 h 34.254 55.365 c 3.556,0 6.438,2.882 6.438,6.438 0,3.556 -2.882,6.437 -6.438,6.437"
             style="fill:#6f3fdc;fill-opacity:1;fill-rule:nonzero;stroke:none"
             id="path4556"
             inkscape:connector-curvature="0" /></g></g></g></g></svg>