<?xml version="1.0" encoding="utf-8"?>
<!-- Generator: Adobe Illustrator 16.0.3, SVG Export Plug-In . SVG Version: 6.00 Build 0)  -->
<!DOCTYPE svg PUBLIC "-//W3C//DTD SVG 1.1//EN" "http://www.w3.org/Graphics/SVG/1.1/DTD/svg11.dtd">
<svg version="1.1" xmlns="http://www.w3.org/2000/svg" xmlns:xlink="http://www.w3.org/1999/xlink" x="0px" y="0px" width="252px"
	 height="144px" viewBox="0 0 252 144" enable-background="new 0 0 252 144" xml:space="preserve">
<g id="Layer_4">
	<path fill="#FFA2F5" d="M158.95,46.596v15.68c0,2.98-2.42,5.4-5.4,5.4h-5.2c-2.979,0-5.399-2.42-5.399-5.4v-15.68
		c0-0.73,0.14-1.42,0.399-2.05h15.2C158.81,45.176,158.95,45.866,158.95,46.596z"/>
	<path fill="#414042" d="M164,44.546h-5.45c-0.81-1.97-2.75-3.35-5-3.35h-5.2c-2.25,0-4.189,1.38-5,3.35h-1.6
		c-0.69,0-1.25,0.56-1.25,1.25s0.56,1.25,1.25,1.25H164c0.69,0,1.25-0.56,1.25-1.25S164.69,44.546,164,44.546z"/>
	<path fill="#58595B" d="M221.75,76.096c0,1.727-2.004,3.125-4.475,3.125h-6.801c-2.471,0-4.475-1.398-4.475-3.125l0,0
		c0-1.727,2.004-3.125,4.475-3.125h6.801C219.746,72.971,221.75,74.369,221.75,76.096L221.75,76.096z"/>
	<path fill="#D1D3D4" d="M218.295,114.185c0,1.266-1.252,2.291-2.795,2.291l0,0c-1.542,0-2.794-1.025-2.794-2.291V80.268
		c0-1.266,1.252-2.291,2.794-2.291l0,0c1.543,0,2.795,1.025,2.795,2.291V114.185z"/>
	<path fill="#D1D3D4" d="M218.295,71.68c0,1.266-1.252,2.291-2.795,2.291l0,0c-1.542,0-2.794-1.025-2.794-2.291V37.763
		c0-1.266,1.252-2.292,2.794-2.292l0,0c1.543,0,2.795,1.026,2.795,2.292V71.68z"/>
	<path fill="#6D6E71" d="M210.084,67.546v17.6c0,0.57-0.048,1.13-0.144,1.66c-0.238,1.44-0.791,2.71-1.554,3.67
		c-0.905,1.16-2.105,1.87-3.45,1.87h-6.385c-2.841,0-5.147-3.22-5.147-7.2v-17.6c0-3.98,2.307-7.2,5.147-7.2h6.385
		c1.345,0,2.545,0.71,3.45,1.87c0.763,0.96,1.315,2.23,1.554,3.67C210.036,66.416,210.084,66.976,210.084,67.546z"/>
	<path fill="#414042" d="M209.94,65.886h-8.349v-3.67h6.795C209.149,63.176,209.702,64.446,209.94,65.886z"/>
	<path fill="#414042" d="M209.94,86.806c-0.238,1.44-0.791,2.71-1.554,3.67h-6.795v-3.67H209.94z"/>
	<rect x="201.592" y="78.396" fill="#414042" width="8.492" height="4.7"/>
	<rect x="201.592" y="69.596" fill="#414042" width="8.492" height="4.7"/>
</g>
<g id="Layer_1">
	<path fill="#BA452A" d="M203.518,64.736c-1.105,3.13-1.773,7.18-1.773,11.61c0,4.43,0.668,8.48,1.773,11.61v1.229
		c0,1.62-0.306,3.16-0.858,4.57c-2.431-3.92-4.013-10.37-4.013-17.66s1.582-13.74,4.013-17.66c0.553,1.41,0.858,2.95,0.858,4.57
		V64.736z"/>
	<path fill="#6F3FDC" d="M203.52,64.736c-1.109,3.13-1.779,7.18-1.779,11.61s0.67,8.48,1.779,11.61v1.229
		c0,1.62-0.31,3.16-0.859,4.57c-1.72,4.36-5.811,7.43-10.58,7.43h-73.91c-4.07,0-8.73-1.13-13.57-2.93
		c-1.36-0.5-2.74-1.06-4.12-1.66c-1.81-0.79-3.61-1.649-5.41-2.56c-3.31-1.67-6.57-3.51-9.68-5.38
		c-12.33-7.42-26.06-14.84-31.42-16.7c-5.36-1.86-14.02-0.96-22.75-9.74c-0.76-5.8-3.22-15.4,9.85-26.25c10.12-2.79,9.53,8,13.34,12
		c1.67,2.37,6.55,3.06,8.73,3.06c2.19,0,0-0.02,0-0.02h70.05c3.899,2.54,10.46,4.21,17.909,4.21c7.45,0,14.011-1.67,17.91-4.21
		h23.07c4.77,0,8.86,3.07,10.58,7.43c0.55,1.41,0.859,2.95,0.859,4.57V64.736z"/>
	<path fill="#432D79" d="M172.05,51.006c-2.24,4.26-10.83,7.43-21.1,7.43c-10.271,0-18.86-3.17-21.101-7.43h3.341
		c3.899,2.54,10.46,4.21,17.909,4.21c7.45,0,14.011-1.67,17.91-4.21H172.05z"/>
	<g>
		<path fill="#414042" d="M174.767,92.166c0,0.554-0.447,1.001-1,1.001l0,0c-0.553,0-1-0.447-1-1.001V34.275
			c0-0.553,0.447-1.001,1-1.001l0,0c0.553,0,1,0.448,1,1.001V92.166z"/>
		<path fill="#414042" d="M129.434,92.166c0,0.554-0.447,1.001-1,1.001l0,0c-0.553,0-1-0.447-1-1.001V34.275
			c0-0.553,0.447-1.001,1-1.001l0,0c0.553,0,1,0.448,1,1.001V92.166z"/>
	</g>
	<g id="Layer_2_copy">
	</g>
	<path fill="#432D79" d="M57.748,63.071c0,1.646-0.978,2.98-2.184,2.98H29.9c-1.206,0-2.184-1.334-2.184-2.98v-0.386
		c0-1.646,0.978-2.98,2.184-2.98h25.664c1.206,0,2.184,1.334,2.184,2.98V63.071z"/>
	<path fill="#432D79" d="M186.484,33.625c0,2.982-2.305,5.4-5.146,5.4h-60.475c-2.843,0-5.147-2.417-5.147-5.4v-0.7
		c0-2.982,2.304-5.4,5.147-5.4h60.475c2.842,0,5.146,2.417,5.146,5.4V33.625z"/>
	<path fill="#432D79" d="M186.335,97.575c0,2.982-2.305,5.4-5.146,5.4h-60.475c-2.843,0-5.147-2.418-5.147-5.4v-0.699
		c0-2.982,2.304-5.4,5.147-5.4h60.475c2.842,0,5.146,2.418,5.146,5.4V97.575z"/>
	<path fill="#FFFFFF" d="M95.072,51.006v43.03c-3.308-1.671-6.577-3.511-9.684-5.381V51.006H95.072z"/>
	<path fill="#FFFFFF" d="M104.603,51.006v47.25c-1.363-0.5-2.745-1.061-4.127-1.66v-45.59H104.603z"/>
</g>
<g id="Layer_2">
</g>
</svg>
