<?xml version="1.0" encoding="UTF-8" standalone="no"?>
<!-- Created with Inkscape (http://www.inkscape.org/) -->
<svg xmlns:dc="http://purl.org/dc/elements/1.1/" xmlns:cc="http://creativecommons.org/ns#" xmlns:rdf="http://www.w3.org/1999/02/22-rdf-syntax-ns#" xmlns:svg="http://www.w3.org/2000/svg" xmlns="http://www.w3.org/2000/svg" xmlns:xlink="http://www.w3.org/1999/xlink" xmlns:sodipodi="http://sodipodi.sourceforge.net/DTD/sodipodi-0.dtd" xmlns:inkscape="http://www.inkscape.org/namespaces/inkscape" width="361.17615" height="192.56966" id="svg3261" version="1.1" inkscape:version="0.48.3.1 r9886" sodipodi:docname="New document 3">
  <defs id="defs3263">
    <linearGradient inkscape:collect="always" xlink:href="#linearGradient4311" id="linearGradient4317" x1="727.05499" y1="133.20276" x2="726.73999" y2="155.11049" gradientUnits="userSpaceOnUse" gradientTransform="matrix(5.3359375,0,0,5.3359375,-3554.5673,-277.32758)"/>
    <linearGradient inkscape:collect="always" id="linearGradient4311">
      <stop style="stop-color:#ffffff;stop-opacity:1;" offset="0" id="stop4313"/>
      <stop style="stop-color:#ffffff;stop-opacity:0;" offset="1" id="stop4315"/>
    </linearGradient>
    <linearGradient gradientTransform="matrix(5.3359375,0,0,5.3359375,-3234.411,-267.98968)" inkscape:collect="always" xlink:href="#linearGradient3961" id="linearGradient3967" x1="674.80078" y1="150.71208" x2="673.44598" y2="147.37515" gradientUnits="userSpaceOnUse"/>
    <linearGradient inkscape:collect="always" id="linearGradient3961">
      <stop style="stop-color:#d45500;stop-opacity:1;" offset="0" id="stop3963"/>
      <stop style="stop-color:#d45500;stop-opacity:0;" offset="1" id="stop3965"/>
    </linearGradient>
    <linearGradient inkscape:collect="always" xlink:href="#linearGradient3180" id="linearGradient3186" x1="665.80042" y1="111.43748" x2="682.45044" y2="137.37314" gradientUnits="userSpaceOnUse" gradientTransform="matrix(5.3115034,-0.51005907,0.51005907,5.3115034,-3300.3567,84.658733)"/>
    <linearGradient inkscape:collect="always" id="linearGradient3180">
      <stop style="stop-color:#ffffff;stop-opacity:1;" offset="0" id="stop3182"/>
      <stop style="stop-color:#ffffff;stop-opacity:0;" offset="1" id="stop3184"/>
    </linearGradient>
    <linearGradient inkscape:collect="always" xlink:href="#linearGradient4057-8" id="linearGradient3463" gradientUnits="userSpaceOnUse" gradientTransform="matrix(5.3359375,0,0,5.3359375,-3554.5673,-266.65571)" x1="749.3429" y1="144.00246" x2="762.1601" y2="142.73187"/>
    <linearGradient inkscape:collect="always" id="linearGradient4057-8">
      <stop style="stop-color:#ff6600;stop-opacity:1;" offset="0" id="stop4059-5"/>
      <stop style="stop-color:#d45500;stop-opacity:1" offset="1" id="stop4061-8"/>
    </linearGradient>
    <linearGradient inkscape:collect="always" xlink:href="#linearGradient4065-1" id="linearGradient3467" gradientUnits="userSpaceOnUse" gradientTransform="matrix(5.3359375,0,0,5.3359375,-3554.5673,-4281.2133)" x1="707.4856" y1="888.33862" x2="707.35931" y2="909.55188"/>
    <linearGradient inkscape:collect="always" id="linearGradient4065-1">
      <stop style="stop-color:#ff2a2a;stop-opacity:1;" offset="0" id="stop4067-4"/>
      <stop style="stop-color:#d40000;stop-opacity:1" offset="1" id="stop4069-1"/>
    </linearGradient>
    <linearGradient inkscape:collect="always" xlink:href="#linearGradient3937" id="linearGradient3943" x1="675.08496" y1="126.29665" x2="674.56958" y2="140.40941" gradientUnits="userSpaceOnUse" gradientTransform="matrix(5.3359375,0,0,5.3359375,-3232.9103,-266.82245)"/>
    <linearGradient inkscape:collect="always" id="linearGradient3937">
      <stop style="stop-color:#00aad4;stop-opacity:1" offset="0" id="stop3939"/>
      <stop style="stop-color:#87decd;stop-opacity:0;" offset="1" id="stop3941"/>
    </linearGradient>
  </defs>
  <sodipodi:namedview id="base" pagecolor="#ffffff" bordercolor="#666666" borderopacity="1.0" inkscape:pageopacity="0.0" inkscape:pageshadow="2" inkscape:zoom="0.98994949" inkscape:cx="151.81329" inkscape:cy="72.663634" inkscape:document-units="px" inkscape:current-layer="layer1" showgrid="false" fit-margin-top="0" fit-margin-left="0" fit-margin-right="0" fit-margin-bottom="0" inkscape:window-width="1317" inkscape:window-height="744" inkscape:window-x="49" inkscape:window-y="24" inkscape:window-maximized="1"/>
  <g inkscape:label="Layer 1" inkscape:groupmode="layer" id="layer1" transform="translate(-171.29788,-424.90042)">
    <path sodipodi:type="arc" style="color:#000000;fill:#000000;fill-opacity:1;fill-rule:nonzero;stroke:none;stroke-width:1;marker:none;visibility:visible;display:inline;overflow:visible;enable-background:accumulate" id="path3998" sodipodi:cx="693.72229" sodipodi:cy="156.43207" sodipodi:rx="1.6414979" sodipodi:ry="1.6414979" d="m 695.36379,156.43207 c 0,0.90657 -0.73493,1.6415 -1.6415,1.6415 -0.90657,0 -1.6415,-0.73493 -1.6415,-1.6415 0,-0.90658 0.73493,-1.6415 1.6415,-1.6415 0.90657,0 1.6415,0.73492 1.6415,1.6415 z" transform="matrix(5.3359375,0,0,5.3359375,-3491.2236,-272.27988)" inkscape:export-filename="/home/special-k/ubuplane.png" inkscape:export-xdpi="299.95239" inkscape:export-ydpi="299.95239"/>
    <path style="fill:#333333;fill-opacity:1;stroke:#000000;stroke-width:5.3359375px;stroke-linecap:round;stroke-linejoin:round;stroke-opacity:1" d="m 377.6769,455.29783 c 23.0161,19.61447 33.33842,5.71025 44.43871,-1.27033 l -4.2464,38.29458 -36.87756,-2.97084 z" id="path3149" inkscape:connector-curvature="0" sodipodi:nodetypes="ccccc"/>
    <path sodipodi:nodetypes="ssccs" inkscape:connector-curvature="0" id="path4011" d="m 438.39236,514.95878 86.57878,-17.77945 c 27.30501,-5.60721 -69.04543,-14.61284 -81.57544,-6.52281 l -105.35643,22.991 c -14.31253,34.39685 80.37091,5.41471 100.35309,1.31126 z" style="fill:#ff6600;fill-opacity:1;stroke:#000000;stroke-width:5.3359375px;stroke-linecap:butt;stroke-linejoin:miter;stroke-opacity:1" inkscape:export-filename="/home/special-k/ubuplane.png" inkscape:export-xdpi="299.95239" inkscape:export-ydpi="299.95239"/>
    <g id="g3152" transform="matrix(4.81257,0.08353944,0.28227536,4.8157834,-3424.45,-3856.2482)" inkscape:export-filename="/home/special-k/ubuplane.png" inkscape:export-xdpi="299.95239" inkscape:export-ydpi="299.95239">
      <path style="fill:#ff6600;fill-opacity:1;stroke:#000000;stroke-width:1.10894442px;stroke-linecap:butt;stroke-linejoin:miter;stroke-opacity:1" d="m 741.40415,892.59316 5.17328,12.86284 7.82847,0.29224 2.21507,-10.40221 z" id="path3146" inkscape:connector-curvature="0" sodipodi:nodetypes="ccccc"/>
      <path sodipodi:type="arc" style="color:#000000;fill:#000000;fill-opacity:1;fill-rule:nonzero;stroke:#000000;stroke-width:1.61968851;stroke-linecap:round;stroke-linejoin:round;stroke-miterlimit:4;stroke-opacity:1;stroke-dasharray:none;stroke-dashoffset:0;marker:none;visibility:visible;display:inline;overflow:visible;enable-background:accumulate" id="path3148" sodipodi:cx="781.54242" sodipodi:cy="140.08023" sodipodi:rx="4.6088209" sodipodi:ry="4.6088209" d="m 786.15124,140.08023 c 0,2.54538 -2.06344,4.60882 -4.60882,4.60882 -2.54538,0 -4.60882,-2.06344 -4.60882,-4.60882 0,-2.54538 2.06344,-4.60882 4.60882,-4.60882 2.54538,0 4.60882,2.06344 4.60882,4.60882 z" transform="matrix(-0.68450371,0,0,0.68482678,1285.694,810.4605)"/>
      <path style="color:#000000;fill:#008033;fill-opacity:1;fill-rule:nonzero;stroke:#000000;stroke-width:1.10894442;marker:none;visibility:visible;display:inline;overflow:visible;enable-background:accumulate" d="m 745.08593,906.10813 c 0.0353,1.29073 2.53553,0.86636 5.63185,0.7819 3.09631,-0.0844 5.61606,0.20298 5.5809,-1.08775 -0.0352,-1.29075 -2.61196,-3.67088 -5.70827,-3.58641 -3.09633,0.0844 -5.53965,2.60152 -5.50447,3.89227 z" id="path3150" inkscape:connector-curvature="0" sodipodi:nodetypes="sssss"/>
    </g>
    <path style="color:#000000;fill:#1a1a1a;fill-opacity:1;fill-rule:nonzero;stroke:#000000;stroke-width:5.3359375;marker:none;visibility:visible;display:inline;overflow:visible;enable-background:accumulate" d="m 344.5266,447.62507 c -42.03268,12.69777 -26.29129,47.15421 5.58827,40.37415 29.57176,-6.28931 49.85372,-3.77944 49.85372,-3.77944 0,0 -20.91896,-47.02386 -55.44199,-36.59471 z" id="path4073" inkscape:connector-curvature="0" sodipodi:nodetypes="sscs" inkscape:export-filename="/home/special-k/ubuplane.png" inkscape:export-xdpi="299.95239" inkscape:export-ydpi="299.95239"/>
    <path style="color:#000000;fill:url(#linearGradient3943);fill-opacity:1;fill-rule:nonzero;stroke:#000000;stroke-width:5.3359375;marker:none;visibility:visible;display:inline;overflow:visible;enable-background:accumulate" d="m 363.19336,445.21429 c -73.64491,11.2521 -45.48919,58.84744 9.66877,50.2165 51.16508,-8.00614 86.25687,-4.81114 86.25687,-4.81114 0,0 -32.18509,-55.14419 -95.92564,-45.40536 z" id="path4073-9" inkscape:connector-curvature="0" sodipodi:nodetypes="sscs" inkscape:export-filename="/home/special-k/ubuplane.png" inkscape:export-xdpi="299.95239" inkscape:export-ydpi="299.95239"/>
    <path style="color:#000000;fill:url(#linearGradient3467);fill-opacity:1;fill-rule:nonzero;stroke:#000000;stroke-width:5.3359375;stroke-linecap:round;stroke-linejoin:round;stroke-miterlimit:4;stroke-opacity:1;stroke-dasharray:none;stroke-dashoffset:0;marker:none;visibility:visible;display:inline;overflow:visible;enable-background:accumulate" d="m 202.7359,501.92186 11.92583,9.50896 c 42.53739,-7.28003 92.69515,-55.5874 133.91724,-64.86803 -18.94262,2.20171 -53.96527,44.68767 10.49265,34.86293 38.13552,-5.81265 60.73812,-29.37044 60.73812,-29.37044 l 52.75518,-8.86449 13.80925,115.20962 c -96.24558,20.42661 -160.53126,-9.59434 -278.16749,-1.64833 -20.05117,-12.75315 -19.72413,-33.92274 -20.59469,-41.97382 0.0533,-10.63569 6.94424,-19.37842 15.12391,-12.8564 z" id="rect3983" inkscape:connector-curvature="0" sodipodi:nodetypes="sccscccccs" inkscape:export-filename="/home/special-k/ubuplane.png" inkscape:export-xdpi="299.95239" inkscape:export-ydpi="299.95239"/>
    <path inkscape:connector-curvature="0" style="color:#000000;fill:#aa0000;fill-opacity:1;fill-rule:nonzero;stroke:none;stroke-width:1;marker:none;visibility:visible;display:inline;overflow:visible;enable-background:accumulate" d="m 416.37083,520.89539 -58.52856,24.17846 34.0166,17.3418 c 30.2608,1.00246 59.65488,-0.36498 88.87671,-6.00294 l -64.36475,-35.51732 z" id="path3188" inkscape:export-filename="/home/special-k/ubuplane.png" inkscape:export-xdpi="299.95239" inkscape:export-ydpi="299.95239"/>
    <path style="fill:url(#linearGradient3463);fill-opacity:1;stroke:#000000;stroke-width:5.3359375px;stroke-linecap:butt;stroke-linejoin:miter;stroke-opacity:1" d="m 472.56492,443.19079 c -8.40928,1.12188 -25.84594,4.33545 -25.84594,4.33545 -33.3097,22.26063 -12.2186,108.88221 13.33984,115.72315 8.8187,-1.42288 17.62748,-1.75708 26.34619,-3.60747 10.79786,-2.29174 14.62746,-4.96333 17.17505,-22.84449 2.54759,-17.88115 -4.55614,-66.41022 -9.17114,-78.09907 -4.615,-11.68885 -13.43471,-16.62945 -21.844,-15.50757 z" id="path3989" inkscape:connector-curvature="0" sodipodi:nodetypes="zccszzz" inkscape:export-filename="/home/special-k/ubuplane.png" inkscape:export-xdpi="299.95239" inkscape:export-ydpi="299.95239"/>
    <path sodipodi:nodetypes="cszzc" inkscape:connector-curvature="0" id="path3476" d="m 476.68123,454.99394 c -23.3625,2.62272 -14.58969,94.80579 10.89161,92.83854 7.52286,-0.58082 11.51121,-3.95697 13.51609,-18.21241 2.00482,-14.25533 -3.58554,-52.94424 -7.21734,-62.26303 -3.6318,-9.31868 -10.57257,-13.25746 -17.19036,-12.3631 z" style="fill:#803300;fill-opacity:1;stroke:#000000;stroke-width:2.66796875;stroke-linecap:butt;stroke-linejoin:miter;stroke-miterlimit:4;stroke-opacity:1;stroke-dasharray:none" inkscape:export-filename="/home/special-k/ubuplane.png" inkscape:export-xdpi="299.95239" inkscape:export-ydpi="299.95239"/>
    <path style="fill:#ffffff;stroke:#000000;stroke-width:5.3359375px;stroke-linecap:butt;stroke-linejoin:miter;stroke-opacity:1" d="m 462.96371,449.14645 c -2.0568,-3.22702 2.36253,-19.41284 9.43271,-21.56044 7.07017,-2.14762 36.63121,129.71792 41.1405,125.83042 4.5093,-3.8875 4.3561,-9.57811 4.59365,-14.42118 0.23745,-4.84305 -53.11007,-86.62179 -55.16686,-89.8488 z" id="path3994" inkscape:connector-curvature="0" sodipodi:nodetypes="zzzzz" inkscape:export-filename="/home/special-k/ubuplane.png" inkscape:export-xdpi="299.95239" inkscape:export-ydpi="299.95239"/>
    <path sodipodi:type="arc" style="color:#000000;fill:#000000;fill-opacity:1;fill-rule:nonzero;stroke:none;stroke-width:1;marker:none;visibility:visible;display:inline;overflow:visible;enable-background:accumulate" id="path3996" sodipodi:cx="787.47705" sodipodi:cy="140.2065" sodipodi:rx="1.7046324" sodipodi:ry="1.7046324" d="m 789.18168,140.2065 c 0,0.94144 -0.76319,1.70463 -1.70463,1.70463 -0.94144,0 -1.70463,-0.76319 -1.70463,-1.70463 0,-0.94145 0.76319,-1.70464 1.70463,-1.70464 0.94144,0 1.70463,0.76319 1.70463,1.70464 z" transform="matrix(5.3359375,0,0,-5.3359375,-3706.5052,1246.3452)" inkscape:export-filename="/home/special-k/ubuplane.png" inkscape:export-xdpi="299.95239" inkscape:export-ydpi="299.95239"/>
    <path style="fill:#ff6600;fill-opacity:1;stroke:#000000;stroke-width:5.3359375px;stroke-linecap:butt;stroke-linejoin:miter;stroke-opacity:1" d="m 418.6838,517.04332 -29.83125,74.13746 -45.14219,1.68439 -12.77301,-59.95512 z" id="path4000" inkscape:connector-curvature="0" sodipodi:nodetypes="ccccc" inkscape:export-filename="/home/special-k/ubuplane.png" inkscape:export-xdpi="299.95239" inkscape:export-ydpi="299.95239"/>
    <path sodipodi:type="arc" style="color:#000000;fill:#000000;fill-opacity:1;fill-rule:nonzero;stroke:#000000;stroke-width:1.35185182;stroke-linecap:round;stroke-linejoin:round;stroke-miterlimit:4;stroke-opacity:1;stroke-dasharray:none;stroke-dashoffset:0;marker:none;visibility:visible;display:inline;overflow:visible;enable-background:accumulate" id="path4005" sodipodi:cx="781.54242" sodipodi:cy="140.08023" sodipodi:rx="4.6088209" sodipodi:ry="4.6088209" d="m 786.15124,140.08023 c 0,2.54538 -2.06344,4.60882 -4.60882,4.60882 -2.54538,0 -4.60882,-2.06344 -4.60882,-4.60882 0,-2.54538 2.06344,-4.60882 4.60882,-4.60882 2.54538,0 4.60882,2.06344 4.60882,4.60882 z" transform="matrix(3.9471318,0,0,3.9471318,-2719.917,43.655793)" inkscape:export-filename="/home/special-k/ubuplane.png" inkscape:export-xdpi="299.95239" inkscape:export-ydpi="299.95239"/>
    <path style="color:#000000;fill:#ff6600;fill-opacity:1;fill-rule:nonzero;stroke:#000000;stroke-width:5.3359375;marker:none;visibility:visible;display:inline;overflow:visible;enable-background:accumulate" d="m 397.45317,594.93946 c -0.20329,7.43937 -14.62095,4.99343 -32.47558,4.50663 -17.85463,-0.48663 -32.38455,1.16991 -32.18178,-6.26946 0.20276,-7.43947 15.06164,-21.15779 32.91622,-20.67094 17.85474,0.48664 31.94391,14.99436 31.74109,22.43383 z" id="path4002" inkscape:connector-curvature="0" sodipodi:nodetypes="sssss" inkscape:export-filename="/home/special-k/ubuplane.png" inkscape:export-xdpi="299.95239" inkscape:export-ydpi="299.95239"/>
    <path inkscape:connector-curvature="0" style="fill:#803300;fill-opacity:1;stroke:none" d="m 414.36986,520.56189 -77.3711,14.00683 59.52905,30.34815 17.84205,-44.35498 z" id="path3183" inkscape:export-filename="/home/special-k/ubuplane.png" inkscape:export-xdpi="299.95239" inkscape:export-ydpi="299.95239"/>
    <path sodipodi:nodetypes="sszss" inkscape:connector-curvature="0" id="path4009" d="m 189.58009,535.95601 -13.54586,6.68529 c -9.2682,4.57413 14.95183,8.75382 17.89967,8.3008 2.94778,-0.45302 28.15384,-9.04058 31.90367,-12.6204 10.08546,-9.62817 -29.47491,-5.71308 -36.25748,-2.36569 z" style="fill:#ff2a2a;stroke:#000000;stroke-width:5.33593702px;stroke-linecap:butt;stroke-linejoin:miter;stroke-opacity:1" inkscape:export-filename="/home/special-k/ubuplane.png" inkscape:export-xdpi="299.95239" inkscape:export-ydpi="299.95239"/>
    <g transform="matrix(5.5747939,-2.0026108,1.1640334,4.6891641,-3234.411,-267.98968)" style="font-size:5.94695711px;font-style:normal;font-variant:normal;font-weight:normal;font-stretch:normal;line-height:125%;letter-spacing:0px;word-spacing:0px;opacity:0.78600823;fill:#ffffff;fill-opacity:1;stroke:none;font-family:Ubuntu;-inkscape-font-specification:Ubuntu" id="text4080">
      <path inkscape:connector-curvature="0" d="m 538.69638,397.46041 c 0.22598,-0.0872 0.44602,-0.19823 0.66011,-0.33303 0.21409,-0.13876 0.41034,-0.31122 0.58875,-0.51739 l 0.3925,0 0,4.12124 -0.55307,0 0,-3.35408 c -0.0476,0.0436 -0.10705,0.0892 -0.17841,0.13678 -0.0674,0.0476 -0.14273,0.0932 -0.22598,0.13678 -0.0793,0.0436 -0.16454,0.0852 -0.25572,0.12488 -0.0872,0.0396 -0.17246,0.0734 -0.25572,0.1011 l -0.17246,-0.41628" id="path3168"/>
      <path inkscape:connector-curvature="0" d="m 541.73797,399.30396 c 0.0753,-0.17444 0.17841,-0.37664 0.30924,-0.60659 0.13083,-0.23391 0.27752,-0.47377 0.44007,-0.71958 0.16652,-0.2458 0.34294,-0.48765 0.52928,-0.72553 0.1903,-0.23787 0.38061,-0.45196 0.57091,-0.64227 l 0.52928,0 0,2.61666 0.48765,0 0,0.45197 -0.48765,0 0,1.05261 -0.53523,0 0,-1.05261 -1.84355,0 0,-0.37466 m 1.84355,-2.0398 c -0.11894,0.12687 -0.23986,0.26959 -0.36276,0.42818 -0.11894,0.15462 -0.2359,0.31717 -0.35087,0.48765 -0.11498,0.17048 -0.224,0.34492 -0.32708,0.52333 -0.0991,0.17841 -0.18832,0.35285 -0.26762,0.52333 l 1.30833,0 0,-1.96249" id="path3170"/>
      <path inkscape:connector-curvature="0" d="m 545.98679,400.4101 c 0,0.10704 -0.0357,0.20021 -0.10705,0.2795 -0.0714,0.0793 -0.16849,0.11894 -0.2914,0.11894 -0.1229,0 -0.22003,-0.0396 -0.2914,-0.11894 -0.0714,-0.0793 -0.10704,-0.17246 -0.10704,-0.2795 0,-0.10705 0.0357,-0.20022 0.10704,-0.27951 0.0714,-0.0793 0.1685,-0.11894 0.2914,-0.11894 0.12291,0 0.22004,0.0397 0.2914,0.11894 0.0714,0.0793 0.10705,0.17246 0.10705,0.27951" id="path3172"/>
      <path inkscape:connector-curvature="0" d="m 546.61772,398.66764 c 0,-0.68985 0.12093,-1.22111 0.36277,-1.59379 0.24581,-0.37267 0.58478,-0.55901 1.01693,-0.55901 0.43214,0 0.76914,0.18634 1.01098,0.55901 0.24581,0.37268 0.36871,0.90394 0.36871,1.59379 0,0.68985 -0.1229,1.22111 -0.36871,1.59378 -0.24184,0.37268 -0.57884,0.55902 -1.01098,0.55902 -0.43215,0 -0.77112,-0.18634 -1.01693,-0.55902 -0.24184,-0.37267 -0.36277,-0.90393 -0.36277,-1.59378 m 2.17659,0 c 0,-0.22598 -0.0139,-0.44007 -0.0416,-0.64227 -0.0238,-0.2022 -0.0674,-0.37862 -0.13083,-0.52928 -0.0595,-0.15066 -0.14075,-0.26959 -0.24383,-0.35682 -0.10308,-0.0912 -0.22995,-0.13678 -0.3806,-0.13678 -0.15066,0 -0.27753,0.0456 -0.38061,0.13678 -0.10308,0.0872 -0.18634,0.20616 -0.24977,0.35682 -0.0595,0.15066 -0.10308,0.32708 -0.13083,0.52928 -0.0238,0.2022 -0.0357,0.41629 -0.0357,0.64227 0,0.22598 0.0119,0.44007 0.0357,0.64227 0.0277,0.2022 0.0714,0.37862 0.13083,0.52928 0.0634,0.15066 0.14669,0.27158 0.24977,0.36276 0.10308,0.0872 0.22995,0.13084 0.38061,0.13084 0.15065,0 0.27752,-0.0436 0.3806,-0.13084 0.10308,-0.0912 0.18436,-0.2121 0.24383,-0.36276 0.0634,-0.15066 0.10704,-0.32708 0.13083,-0.52928 0.0277,-0.2022 0.0416,-0.41629 0.0416,-0.64227" id="path3174"/>
      <path inkscape:connector-curvature="0" d="m 549.91503,399.30396 c 0.0753,-0.17444 0.17841,-0.37664 0.30925,-0.60659 0.13083,-0.23391 0.27752,-0.47377 0.44007,-0.71958 0.16651,-0.2458 0.34294,-0.48765 0.52928,-0.72553 0.1903,-0.23787 0.3806,-0.45196 0.57091,-0.64227 l 0.52928,0 0,2.61666 0.48765,0 0,0.45197 -0.48765,0 0,1.05261 -0.53523,0 0,-1.05261 -1.84356,0 0,-0.37466 m 1.84356,-2.0398 c -0.11894,0.12687 -0.23986,0.26959 -0.36276,0.42818 -0.11894,0.15462 -0.2359,0.31717 -0.35087,0.48765 -0.11498,0.17048 -0.22401,0.34492 -0.32709,0.52333 -0.0991,0.17841 -0.18832,0.35285 -0.26761,0.52333 l 1.30833,0 0,-1.96249" id="path3176"/>
    </g>
    <path inkscape:connector-curvature="0" style="fill:#e75d00;fill-opacity:1;stroke:none" d="m 441.21629,534.56872 c 2.2395,5.58331 4.41677,11.47536 7.17017,15.50757 3.82347,5.59921 8.04686,9.11794 11.83911,10.33838 7.63172,-1.18853 15.12455,-1.7496 22.34424,-3.00147 l -41.35352,-22.84448 z" id="path3195" inkscape:export-filename="/home/special-k/ubuplane.png" inkscape:export-xdpi="299.95239" inkscape:export-ydpi="299.95239"/>
    <path style="color:#000000;fill:url(#linearGradient3186);fill-opacity:1;fill-rule:nonzero;stroke:none;stroke-width:1;marker:none;visibility:visible;display:inline;overflow:visible;enable-background:accumulate" d="m 380.64801,446.79538 c -5.42046,-0.1286 -11.43518,0.0773 -17.41084,0.9904 -21.35875,3.26335 -29.94267,7.90498 -35.88264,16.55688 8.57432,1.59214 14.31249,-0.45088 24.98505,-1.4756 20.03138,-1.9236 35.83765,-6.02864 44.29432,-14.14989 -5.45264,-1.22359 -9.81136,-1.77532 -15.98589,-1.92179 z" id="path3178" inkscape:connector-curvature="0" sodipodi:nodetypes="sscscs"/>
    <path style="fill:#ff6600;stroke:#000000;stroke-width:5.33593702px;stroke-linecap:butt;stroke-linejoin:miter;stroke-opacity:1" d="m 306.51194,515.57135 -96.77534,37.55353 c -29.07681,11.28321 77.17697,16.40437 91.18269,7.32255 L 418.6838,517.04332 c 15.99811,-38.614 -90.89305,-9.72918 -112.17186,-1.47197 z" id="path3987" inkscape:connector-curvature="0" sodipodi:nodetypes="ssccs" inkscape:export-filename="/home/special-k/ubuplane.png" inkscape:export-xdpi="299.95239" inkscape:export-ydpi="299.95239"/>
    <path style="fill:url(#linearGradient3967);fill-opacity:1;stroke:none" d="m 411.36839,502.05285 -120.09557,54.4136 0.70397,4.11123 c 4.08615,-0.73534 7.27907,-1.71593 9.0044,-2.83472 l 116.05664,-42.85051 c 1.46679,-8.27971 -0.35218,-9.83776 -5.66944,-12.8396 z" id="path4283" inkscape:connector-curvature="0" sodipodi:nodetypes="cccccc" inkscape:export-filename="/home/special-k/ubuplane.png" inkscape:export-xdpi="299.95239" inkscape:export-ydpi="299.95239"/>
    <path style="fill:url(#linearGradient4317);fill-opacity:1;stroke:none" d="m 394.75078,499.75221 c -29.36216,-0.43701 -74.59218,12.33663 -87.64159,18.10003 l -95.82608,36.91653 c -6.72061,2.96822 -1.95098,3.54333 3.00147,4.56473 l 194.97329,-57.74706 c -3.96834,-1.2008 -8.92825,-1.7512 -14.50709,-1.83423 z" id="path4306" inkscape:connector-curvature="0" sodipodi:nodetypes="sccccs" inkscape:export-filename="/home/special-k/ubuplane.png" inkscape:export-xdpi="299.95239" inkscape:export-ydpi="299.95239"/>
  </g>
  <metadata>
    <rdf:RDF>
      <cc:Work>
        <dc:format>image/svg+xml</dc:format>
        <dc:type rdf:resource="http://purl.org/dc/dcmitype/StillImage"/>
        <cc:license rdf:resource="http://creativecommons.org/licenses/publicdomain/"/>
        <dc:publisher>
          <cc:Agent rdf:about="http://openclipart.org/">
            <dc:title>Open Clip Art Library</dc:title>
          </cc:Agent>
        </dc:publisher>
        <dc:title>ubuplane</dc:title>
        <dc:date>2013-04-01T20:37:20</dc:date>
        <dc:description/>
        <dc:source>http://openclipart.org/detail/176692/ubuplane-by-special_k-176692</dc:source>
        <dc:creator>
          <cc:Agent>
            <dc:title>Special_K</dc:title>
          </cc:Agent>
        </dc:creator>
        <dc:subject>
          <rdf:Bag>
            <rdf:li>aeroplane</rdf:li>
            <rdf:li>aircraft</rdf:li>
            <rdf:li>airplane</rdf:li>
            <rdf:li>clip art</rdf:li>
            <rdf:li>clipart</rdf:li>
            <rdf:li>flight</rdf:li>
            <rdf:li>warplane</rdf:li>
          </rdf:Bag>
        </dc:subject>
      </cc:Work>
      <cc:License rdf:about="http://creativecommons.org/licenses/publicdomain/">
        <cc:permits rdf:resource="http://creativecommons.org/ns#Reproduction"/>
        <cc:permits rdf:resource="http://creativecommons.org/ns#Distribution"/>
        <cc:permits rdf:resource="http://creativecommons.org/ns#DerivativeWorks"/>
      </cc:License>
    </rdf:RDF>
  </metadata>
</svg>
