<?xml version="1.0" encoding="UTF-8" standalone="no"?>
<!-- Created with Inkscape (http://www.inkscape.org/) -->

<svg
   xmlns:dc="http://purl.org/dc/elements/1.1/"
   xmlns:cc="http://creativecommons.org/ns#"
   xmlns:rdf="http://www.w3.org/1999/02/22-rdf-syntax-ns#"
   xmlns:svg="http://www.w3.org/2000/svg"
   xmlns="http://www.w3.org/2000/svg"
   xmlns:sodipodi="http://sodipodi.sourceforge.net/DTD/sodipodi-0.dtd"
   xmlns:inkscape="http://www.inkscape.org/namespaces/inkscape"
   width="100mm"
   height="132mm"
   viewBox="0 0 100 132"
   version="1.1"
   id="tree"
   inkscape:version="0.92.1 r"
   sodipodi:docname="tree.svg">
  <defs
     id="defs6355" />
  <sodipodi:namedview
     id="base"
     pagecolor="#ffffff"
     bordercolor="#666666"
     borderopacity="1.0"
     inkscape:pageopacity="0.0"
     inkscape:pageshadow="2"
     inkscape:zoom="2.8"
     inkscape:cx="194.71817"
     inkscape:cy="119.14561"
     inkscape:document-units="mm"
     inkscape:current-layer="layer1"
     showgrid="false"
     inkscape:window-width="1920"
     inkscape:window-height="937"
     inkscape:window-x="1920"
     inkscape:window-y="27"
     inkscape:window-maximized="1" />
  <metadata
     id="metadata6358">
    <rdf:RDF>
      <cc:Work
         rdf:about="">
        <dc:format>image/svg+xml</dc:format>
        <dc:type
           rdf:resource="http://purl.org/dc/dcmitype/StillImage" />
        <dc:title></dc:title>
      </cc:Work>
    </rdf:RDF>
  </metadata>
  <g
     inkscape:label="Layer 1"
     inkscape:groupmode="layer"
     id="layer1"
     transform="translate(0,-165)">
    <path
       style="fill:#000000;fill-opacity:1;stroke-width:0.06880451"
       d="m 62.257078,164.92476 c -9.102093,3.91404 -21.2005,-0.20382 -28.166967,7.30717 -10.357251,3.46121 -26.0073266,9.25288 -27.9165112,20.51378 4.2294232,6.58458 7.8558632,9.23842 -1.5133756,12.88675 -9.7180834,5.12665 -2.7327992,16.70999 6.7887208,12.75553 4.423083,5.66088 24.024096,-0.92592 17.571767,10.77641 -11.588736,7.34771 -8.280708,21.4344 -12.842502,32.32222 -3.521183,8.49778 -0.654529,17.60613 -1.610733,26.5482 0.734692,11.02363 19.872894,3.85453 11.975468,-7.14612 -2.407798,-14.77142 1.508238,-29.454 4.67292,-43.76165 3.159879,-11.07562 16.293487,-10.39703 25.487661,-10.53898 5.942599,-2.08632 19.032207,2.08922 16.012268,-5.72907 8.922778,-3.16575 21.771148,9.82459 24.07195,-6.02889 10.895126,-2.25909 -12.166028,-18.53758 -0.136254,-16.52637 5.72331,2.79953 2.971243,-11.45864 -1.305529,-13.64576 -4.057597,-11.96982 -17.068969,-12.89278 -26.727132,-17.73524 -2.052808,-0.85695 -4.170622,-1.58597 -6.361527,-1.99798 z m 0.574058,0.35069 c -0.13458,0.86181 -0.556747,-0.90118 0,0 z m 8.287684,59.65232 c -0.05863,0.67525 0.592039,-0.65916 0,0 z"
       id="path3807"
       inkscape:connector-curvature="0"
       sodipodi:nodetypes="cccccccccccccccccccccc" />
  </g>
</svg>
