<?xml version="1.0" encoding="UTF-8" standalone="no"?>
<!-- Created with Inkscape (http://www.inkscape.org/) -->

<svg
   xmlns:dc="http://purl.org/dc/elements/1.1/"
   xmlns:cc="http://creativecommons.org/ns#"
   xmlns:rdf="http://www.w3.org/1999/02/22-rdf-syntax-ns#"
   xmlns:svg="http://www.w3.org/2000/svg"
   xmlns="http://www.w3.org/2000/svg"
   xmlns:sodipodi="http://sodipodi.sourceforge.net/DTD/sodipodi-0.dtd"
   xmlns:inkscape="http://www.inkscape.org/namespaces/inkscape"
   width="2.5999999mm"
   height="2.5999999mm"
   viewBox="0 0 2.5999999 2.5999998"
   version="1.1"
   id="svg8220"
   inkscape:version="0.92.1 r"
   sodipodi:docname="circle-s.svg">
  <defs
     id="defs8214" />
  <sodipodi:namedview
     id="base"
     pagecolor="#ffffff"
     bordercolor="#666666"
     borderopacity="1.0"
     inkscape:pageopacity="0.0"
     inkscape:pageshadow="2"
     inkscape:zoom="11.2"
     inkscape:cx="26.063692"
     inkscape:cy="23.602253"
     inkscape:document-units="mm"
     inkscape:current-layer="layer1"
     showgrid="false"
     inkscape:window-width="960"
     inkscape:window-height="937"
     inkscape:window-x="2880"
     inkscape:window-y="27"
     inkscape:window-maximized="0" />
  <metadata
     id="metadata8217">
    <rdf:RDF>
      <cc:Work
         rdf:about="">
        <dc:format>image/svg+xml</dc:format>
        <dc:type
           rdf:resource="http://purl.org/dc/dcmitype/StillImage" />
        <dc:title></dc:title>
      </cc:Work>
    </rdf:RDF>
  </metadata>
  <g
     inkscape:label="Layer 1"
     inkscape:groupmode="layer"
     id="layer1"
     transform="translate(0,-294.4)">
    <path
       class="bfdf687d-b352-435d-864b-34287f7f5689"
       d="m 1.3339474,296.99933 a 1.3229167,1.3229167 0 0 1 -0.95249999,-0.36247 1.2038542,1.2038542 0 0 1 -0.3809999964,-0.91017 1.1826875,1.1826875 0 0 1 0.3836459964,-0.90488 1.36525,1.36525 0 0 1 0.96837499,-0.35718 1.2885208,1.2885208 0 0 1 0.931333,0.35718 1.1932708,1.1932708 0 0 1 0.373063,0.89694 1.2197292,1.2197292 0 0 1 -0.375709,0.91546 1.3070417,1.3070417 0 0 1 -0.947208,0.36512 z"
       id="path42"
       inkscape:connector-curvature="0"
       style="fill:#07d1e2;stroke-width:0.26458332" />
  </g>
</svg>
