<?xml version="1.0" encoding="UTF-8" standalone="no"?>
<!-- Created with Inkscape (http://www.inkscape.org/) -->

<svg
   xmlns:dc="http://purl.org/dc/elements/1.1/"
   xmlns:cc="http://creativecommons.org/ns#"
   xmlns:rdf="http://www.w3.org/1999/02/22-rdf-syntax-ns#"
   xmlns:svg="http://www.w3.org/2000/svg"
   xmlns="http://www.w3.org/2000/svg"
   xmlns:sodipodi="http://sodipodi.sourceforge.net/DTD/sodipodi-0.dtd"
   xmlns:inkscape="http://www.inkscape.org/namespaces/inkscape"
   width="4mm"
   height="4mm"
   viewBox="0 0 4 4"
   version="1.1"
   id="svg6465"
   inkscape:version="0.92.1 r"
   sodipodi:docname="circle.svg">
  <defs
     id="defs6459" />
  <sodipodi:namedview
     id="base"
     pagecolor="#ffffff"
     bordercolor="#666666"
     borderopacity="1.0"
     inkscape:pageopacity="0.0"
     inkscape:pageshadow="2"
     inkscape:zoom="3.959798"
     inkscape:cx="24.489758"
     inkscape:cy="21.120388"
     inkscape:document-units="mm"
     inkscape:current-layer="layer1"
     showgrid="false"
     inkscape:window-width="960"
     inkscape:window-height="937"
     inkscape:window-x="2880"
     inkscape:window-y="27"
     inkscape:window-maximized="0" />
  <metadata
     id="metadata6462">
    <rdf:RDF>
      <cc:Work
         rdf:about="">
        <dc:format>image/svg+xml</dc:format>
        <dc:type
           rdf:resource="http://purl.org/dc/dcmitype/StillImage" />
        <dc:title></dc:title>
      </cc:Work>
    </rdf:RDF>
  </metadata>
  <g
     inkscape:label="Layer 1"
     inkscape:groupmode="layer"
     id="layer1"
     transform="translate(0,-293)">
    <path
       class="bfdf687d-b352-435d-864b-34287f7f5689"
       d="M 2.0088226,296.99892 A 2.00025,2.00025 0 0 1 0.5747806,296.45388 1.80975,1.80975 0 0 1 6.3559889e-4,295.08599 1.7806458,1.7806458 0 0 1 0.5800726,293.72338 a 2.0558125,2.0558125 0 0 1 1.457854,-0.52916 1.9393958,1.9393958 0 0 1 1.399646,0.52916 1.7965208,1.7965208 0 0 1 0.560917,1.35202 1.8520833,1.8520833 0 0 1 -0.563563,1.37848 1.9685,1.9685 0 0 1 -1.426104,0.54504 z m -0.02117,-0.50535 a 1.4419792,1.4419792 0 0 0 1.058334,-0.39952 1.3599583,1.3599583 0 0 0 0.410104,-1.01865 1.3229167,1.3229167 0 0 0 -0.41275,-1.00012 1.5292917,1.5292917 0 0 0 -2.069042,0 1.3626042,1.3626042 0 0 0 -0.415396,1.01335 1.3229167,1.3229167 0 0 0 0.415396,0.99484 1.412875,1.412875 0 0 0 1.013354,0.40216 z"
       id="path44"
       inkscape:connector-curvature="0"
       style="fill:#07d1e2;stroke-width:0.26458332" />
  </g>
</svg>
