<?xml version="1.0" encoding="UTF-8" standalone="no"?>
<!-- Created with Inkscape (http://www.inkscape.org/) -->

<svg
   xmlns:dc="http://purl.org/dc/elements/1.1/"
   xmlns:cc="http://creativecommons.org/ns#"
   xmlns:rdf="http://www.w3.org/1999/02/22-rdf-syntax-ns#"
   xmlns:svg="http://www.w3.org/2000/svg"
   xmlns="http://www.w3.org/2000/svg"
   xmlns:sodipodi="http://sodipodi.sourceforge.net/DTD/sodipodi-0.dtd"
   xmlns:inkscape="http://www.inkscape.org/namespaces/inkscape"
   width="3.7mm"
   height="3.7mm"
   viewBox="0 0 3.7 3.7"
   version="1.1"
   id="svg8805"
   inkscape:version="0.92.1 r"
   sodipodi:docname="circle-s-p.svg">
  <defs
     id="defs8799" />
  <sodipodi:namedview
     id="base"
     pagecolor="#ffffff"
     bordercolor="#666666"
     borderopacity="1.0"
     inkscape:pageopacity="0.0"
     inkscape:pageshadow="2"
     inkscape:zoom="2.8"
     inkscape:cx="81.412647"
     inkscape:cy="17.779505"
     inkscape:document-units="mm"
     inkscape:current-layer="layer1"
     showgrid="false"
     inkscape:window-width="960"
     inkscape:window-height="937"
     inkscape:window-x="2880"
     inkscape:window-y="27"
     inkscape:window-maximized="0" />
  <metadata
     id="metadata8802">
    <rdf:RDF>
      <cc:Work
         rdf:about="">
        <dc:format>image/svg+xml</dc:format>
        <dc:type
           rdf:resource="http://purl.org/dc/dcmitype/StillImage" />
        <dc:title></dc:title>
      </cc:Work>
    </rdf:RDF>
  </metadata>
  <g
     inkscape:label="Layer 1"
     inkscape:groupmode="layer"
     id="layer1"
     transform="translate(0,-293.3)">
    <path
       class="dbb33c53-2fea-49cb-9ac2-9846b0a694cc"
       d="m 1.8579228,293.46412 a 1.8520833,1.8520833 0 0 1 1.322916,0.50535 1.6774583,1.6774583 0 0 1 0.529167,1.26736 1.651,1.651 0 0 1 -0.529167,1.26206 1.9076458,1.9076458 0 0 1 -1.352021,0.50006 A 1.7965208,1.7965208 0 0 1 0.52971375,296.49889 1.666875,1.666875 0 0 1 5.4775438e-4,295.24741 1.7039167,1.7039167 0 0 1 0.52971375,293.96947 1.8229792,1.8229792 0 0 1 1.8579228,293.46412 Z"
       id="path56"
       inkscape:connector-curvature="0"
       style="fill:#ffa2f5;stroke-width:0.26458332" />
  </g>
</svg>
