<svg xmlns="http://www.w3.org/2000/svg" xmlns:xlink="http://www.w3.org/1999/xlink" xml:space="preserve" style="shape-rendering:geometricPrecision;text-rendering:geometricPrecision;image-rendering:optimizeQuality;" viewBox="0 0 100 100" x="0px" y="0px" fill-rule="evenodd" clip-rule="evenodd"><defs><style type="text/css">
   
    .fil1 {fill:#0A0B0C}
    .fil0 {fill:#0A0B0C;fill-rule:nonzero}
   
  </style></defs><g><g><path class="fil0" d="M74.4242 41.8043l0 3.06144c0.392129,0.296459 0.879928,0.505516 1.36773,0.715754 0.533862,0.229136 1.06891,0.459452 1.5697,0.805518 0.473626,-0.30827 0.994496,-0.527957 1.51537,-0.746463 0.480712,-0.20197 0.962606,-0.40394 1.32285,-0.656698 0.00236222,-0.438192 0.00944889,-0.927173 0.0153545,-1.41497 0.00472445,-0.373231 0.00944889,-0.747644 0.00944889,-1.81183l1.80828 0c0,0.532681 -0.00826778,1.18347 -0.0165356,1.83309 -0.00472445,0.373231 -0.00944889,0.747644 -0.00944889,1.81301l0 0.370869 -0.268112 0.268112c-0.617721,0.61654 -1.39017,0.941346 -2.16262,1.26497 -0.611816,0.257482 -1.22363,0.514965 -1.58269,0.870479l0.00118111 0.00236222 -0.00590556 0.00472445 -0.638981 0.640163 -0.638981 -0.640163c-0.424019,-0.422838 -1.02875,-0.683864 -1.6323,-0.943708 -0.76536,-0.32953 -1.53072,-0.65906 -2.19805,-1.32521l-0.264569 -0.26575 0 -0.374412 0 -3.47129 1.80828 0z"></path><path class="fil1" d="M59.6768 50.0094l13.8426 -4.69728 3.7583 2.22758 3.7583 -2.22758 13.8438 4.69728c0,6.80675 0,13.6147 0,20.4226 -9.25047,0.532681 -15.3521,3.0638 -17.5655,7.00163 -1.71379,-4.0831 -7.48825,-3.00593 -17.6375,-7.00163l0 -20.4226zm16.4576 -1.03111c0.386224,-0.387405 0.771266,-0.771266 1.15749,-1.15985 0.385042,0.388586 0.770085,0.772447 1.15631,1.15985 -0.206695,0.62717 -0.490161,1.14686 -1.14922,1.14922 0,0.00590556 0,0.01063 0.00118111,0.0165356 0.00590556,0.00708667 0.0129922,0.0141733 0.0200789,0.0200789 -0.00708667,0.0519689 -0.0129922,0.101576 -0.0200789,0.151182 0,0.0437011 0.211419,0.264569 0.211419,0.309451l2.36104 20.295 -2.56065 3.60003 0.00118111 0.38268 -0.06378 -0.193702 -0.06378 0.193702 0.00118111 -0.38268 -2.44844 -3.54452c0.716935,-6.59651 1.61576,-13.7741 2.3327,-20.3706 0,-0.0448822 0.211419,-0.245671 0.211419,-0.289372 -0.00590556,-0.0496067 -0.0118111,-0.0992134 -0.0188978,-0.151182 0.00708667,-0.00590556 0.0129922,-0.0129922 0.02126,-0.0200789 0,-0.00590556 0,-0.01063 0,-0.0165356 -0.4252,-0.0283467 -0.819691,-0.310632 -1.1504,-1.14922z"></path><path class="fil0" d="M49.4402 18.3899l0.00354333 0 0 0.00354333c1.32757,0 2.96105,0.269293 4.43626,0.987409 0.227955,0.111024 0.468901,0.243309 0.720478,0.399216 1.23072,0.757093 2.29136,1.86734 2.89845,3.44176 1.02284,2.6516 1.35355,5.19925 0.927173,7.84731 -0.419295,2.61498 -1.5756,5.30437 -3.53034,8.27605l0 0.00472445 -0.0448822 0.0661423 -0.00236222 0.00354333c-0.17008,0.253939 -0.35079,0.500791 -0.538587,0.73347 -0.20197,0.251577 -0.406302,0.484256 -0.610635,0.693313 -1.14213,1.16694 -2.589,2.00789 -4.20003,1.98427l-0.0141733 0 -0.0767723 -0.00236222 -0.0177167 0c-0.295278,-0.0141733 -0.601186,-0.0673234 -0.909456,-0.153545l-0.00354333 0c-0.284648,-0.0803156 -0.578745,-0.190159 -0.876385,-0.323625 -1.42915,-0.642525 -2.89963,-1.86143 -3.49255,-2.72128 -1.50828,-2.18742 -2.67404,-4.30279 -3.2327,-6.8469 -0.556304,-2.53467 -0.500791,-5.46028 0.432287,-9.25637l0 0 0.00118111 -0.00236222 0 -0.00354333c0.147639,-0.602367 0.369688,-1.13859 0.64843,-1.61576 0.281105,-0.481894 0.617721,-0.902369 0.994496,-1.26615 1.86025,-1.8012 4.68547,-2.24884 6.48785,-2.24884zm0.00354333 1.80474l0 0.00354333 -0.00354333 0c-1.4882,0 -3.79727,0.344885 -5.22996,1.73269 -0.263388,0.25512 -0.498429,0.546855 -0.692131,0.877566 -0.194883,0.336617 -0.351971,0.715754 -0.45709,1.14332l-0.00118111 0 0 0.00118111 0 0.00354333c-0.859849,3.50081 -0.917724,6.1654 -0.416932,8.44495 0.498429,2.2701 1.56379,4.19531 2.94924,6.20438 0.44646,0.647249 1.59804,1.58387 2.74254,2.09884 0.211419,0.0944889 0.424019,0.173623 0.630714,0.231498l0 0.00118111c0.183072,0.0519689 0.354333,0.0826778 0.509059,0.0897645l0 0.00118111 0.0602367 0.00118111 0 0c1.04292,0.00944889 2.0445,-0.601186 2.87128,-1.44804 0.184253,-0.187797 0.35079,-0.375594 0.498429,-0.558666 0.160631,-0.198427 0.30827,-0.400397 0.442917,-0.602367l0 0 0.0437011 -0.0673234 0.00236222 0.00118111c1.80828,-2.75199 2.87483,-5.21225 3.25278,-7.56738 0.373231,-2.3197 0.0779534,-4.565 -0.827959,-6.91541 -0.450004,-1.16458 -1.24253,-1.99135 -2.1638,-2.55947 -0.166537,-0.101576 -0.356696,-0.204332 -0.565752,-0.305908 -1.21182,-0.590556 -2.55356,-0.811424 -3.64491,-0.811424z"></path><path class="fil0" d="M45.7551 38.9094l0 3.83861c0.511421,0.407484 1.15158,0.682683 1.79057,0.957882 0.682683,0.292916 1.36418,0.587012 1.99372,1.04292 0.594099,-0.407484 1.26261,-0.688588 1.93112,-0.969693 0.634257,-0.266931 1.2697,-0.532681 1.73742,-0.885834 0.00236222,-0.589375 0.01063,-1.20828 0.0188978,-1.826 0.00590556,-0.486618 0.0129922,-0.973236 0.0129922,-2.21577l1.80828 0c0,0.708667 -0.01063,1.47285 -0.0200789,2.23703 -0.00590556,0.485437 -0.0129922,0.972055 -0.0129922,2.21577l0 0.374412 -0.264569 0.264569c-0.72284,0.72284 -1.65238,1.11261 -2.58073,1.50237 -0.76536,0.321262 -1.52954,0.643706 -1.99844,1.10788l0.00118111 0.00118111 -0.00472445 0.00590556 -0.640163 0.638981 -0.638981 -0.638981c-0.544492,-0.544492 -1.3004,-0.870479 -2.05632,-1.19529 -0.916543,-0.394491 -1.83309,-0.788983 -2.62089,-1.57678l-0.264569 -0.264569 0 -0.374412 0 -4.24019 1.80828 0z"></path><path class="fil1" d="M27.9439 48.9299l16.9064 -5.73548 4.5898 2.7201 4.59098 -2.7201 16.9053 5.73548c0,8.31384 0,16.6277 0,24.9415 -7.59455,4.19058 -17.3564,1.19174 -21.4962,8.54298 -1.60631,-5.7154 -11.1355,-4.93587 -21.4962,-8.54298l0 -24.9415zm20.1002 -1.25907c0.471264,-0.471264 0.941346,-0.943708 1.41261,-1.41615 0.471264,0.472445 0.941346,0.944889 1.41261,1.41615 -0.252758,0.76536 -0.598824,1.4008 -1.40316,1.40552 0,0.00590556 0,0.0129922 0,0.0188978 0.00826778,0.00826778 0.0165356,0.0165356 0.0248033,0.0248033 -0.00826778,0.0614178 -0.0153545,0.122836 -0.0236222,0.184253 0,0.0543311 0.258663,0.323625 0.258663,0.377956l2.88309 24.7833 -3.12758 4.39846 0.00118111 0.466539 -0.0779534 -0.235041 -0.0779534 0.235041 0.00236222 -0.466539 -2.98939 -4.32996c0.874023,-8.05636 1.97246,-16.8202 2.84766,-24.8778 0,-0.0543311 0.258663,-0.29764 0.258663,-0.351971 -0.00826778,-0.0614178 -0.0153545,-0.122836 -0.0236222,-0.184253 0.00826778,-0.00826778 0.0165356,-0.0165356 0.0248033,-0.0248033 0,-0.00590556 0,-0.0129922 0,-0.0188978 -0.518508,-0.0354333 -1.0004,-0.380318 -1.40316,-1.40552z"></path><path class="fil0" d="M19.8687 41.8043l0 3.06144c0.39331,0.296459 0.879928,0.505516 1.36773,0.715754 0.533862,0.229136 1.06891,0.459452 1.5697,0.805518 0.473626,-0.30827 0.994496,-0.527957 1.51537,-0.746463 0.481894,-0.20197 0.963787,-0.40394 1.32285,-0.656698 0.00354333,-0.438192 0.00944889,-0.927173 0.0153545,-1.41497 0.00472445,-0.373231 0.00944889,-0.747644 0.00944889,-1.81183l1.80946 0c0,0.532681 -0.00944889,1.18347 -0.0177167,1.83309 -0.00472445,0.373231 -0.00944889,0.747644 -0.00944889,1.81301l0 0.370869 -0.268112 0.268112c-0.617721,0.61654 -1.39017,0.941346 -2.16262,1.26497 -0.611816,0.257482 -1.22363,0.514965 -1.58269,0.870479l0.00118111 0.00236222 -0.00590556 0.00472445 -0.638981 0.640163 -0.638981 -0.640163c-0.424019,-0.422838 -1.02875,-0.683864 -1.6323,-0.943708 -0.76536,-0.32953 -1.53072,-0.65906 -2.19805,-1.32521l-0.264569 -0.26575 0 -0.374412 0 -3.47129 1.80828 0z"></path><path class="fil1" d="M5.1213 50.0094l13.8426 -4.69728 3.75948 2.22758 3.7583 -2.22758 13.8426 4.69728c0,6.80675 0,13.6147 0,20.4226 -7.66541,1.98191 -15.5257,3.19609 -17.6009,6.99454 -1.71379,-4.0831 -7.31344,-6.528 -17.6021,-6.99454l0 -20.4226zm16.4588 -1.03111c0.385042,-0.386224 0.770085,-0.772447 1.15631,-1.15985 0.385042,0.387405 0.770085,0.773628 1.15631,1.15985 -0.206695,0.62717 -0.490161,1.14686 -1.14922,1.1504 0,0.00590556 0,0.01063 0.00118111,0.0153545 0.00590556,0.00708667 0.0129922,0.0141733 0.0200789,0.02126 -0.00708667,0.0496067 -0.0129922,0.100394 -0.0200789,0.150001 0,0.0448822 0.211419,0.26575 0.211419,0.309451l2.36104 20.2939 -2.56065 3.60121 0.00118111 0.38268 -0.06378 -0.193702 -0.06378 0.193702 0.00118111 -0.38268 -2.44726 -3.5457c0.715754,-6.59651 1.61576,-13.7729 2.33151,-20.3706 0,-0.0437011 0.211419,-0.243309 0.211419,-0.288191 -0.00590556,-0.0496067 -0.0129922,-0.100394 -0.0188978,-0.150001 0.00590556,-0.00708667 0.0129922,-0.0141733 0.0200789,-0.0200789 0,-0.00590556 0,-0.01063 0,-0.0165356 -0.424019,-0.0283467 -0.81851,-0.310632 -1.14804,-1.1504z"></path><path class="fil1" d="M40.1283 23.2029c0.620084,-2.01025 2.04332,-3.37798 4.59334,-3.9709l1.0819 -0.251577 0.0200789 1.11733c0.0188978,1.12796 -0.349609,2.84175 -0.874023,4.552 -0.442917,1.43859 -1.00276,2.90081 -1.53545,4.00987 -0.656698,1.36773 -1.40907,2.29018 -2.1071,2.30199 -0.113387,0.00236222 -0.226773,-0.0141733 -0.335436,-0.0472445l-0.504335 -0.153545 -0.113387 -0.513784c-0.623627,-2.8075 -0.798431,-5.18626 -0.225592,-7.04415z"></path><path class="fil1" d="M58.5064 22.5817c0.766541,1.82836 0.912999,4.16932 0.0649611,7.05714l-0.487799 1.66064 -1.08072 -1.35355c-0.780715,-0.976779 -2.85829,-1.78702 -5.02917,-2.6327 -4.20121,-1.6382 -8.70716,-3.3957 -7.43982,-7.56502l0.0779534 -0.257482 0.200789 -0.17008c1.43033,-1.20946 3.59767,-1.81419 5.80398,-1.72442 1.57915,0.06378 3.19373,0.481894 4.58389,1.28505 1.42206,0.822054 2.61262,2.04332 3.30593,3.70042z"></path><path class="fil0" d="M22.76 23.4498l0.00354333 0 0 0.00472445c1.18347,0 2.63978,0.239766 3.95554,0.879928 0.200789,0.0980323 0.415751,0.217325 0.643706,0.356696 1.10198,0.679139 2.05159,1.67364 2.59608,3.08388 0.908275,2.35514 1.20119,4.61578 0.823235,6.96974 -0.37205,2.31734 -1.39726,4.70082 -3.1264,7.33116l0 0.00472445 -0.0448822 0.0673234 -0.00354333 0.00236222c-0.152363,0.227955 -0.312995,0.44646 -0.479531,0.653155 -0.171261,0.2126 -0.355515,0.420476 -0.549217,0.617721 -1.02284,1.0441 -2.32088,1.79411 -3.76775,1.77403l-0.0177167 0 -0.0767723 -0.00236222 -0.0177167 0c-0.271656,-0.0141733 -0.548036,-0.06378 -0.824416,-0.141733 -0.263388,-0.07441 -0.529138,-0.174805 -0.791345,-0.292916 -1.2697,-0.572839 -2.57719,-1.66064 -3.1075,-2.42837 -1.33702,-1.9382 -2.36813,-3.81263 -2.8642,-6.06973 -0.493705,-2.24884 -0.445279,-4.8402 0.381499,-8.20282l0 0 0.00118111 -0.00236222 0 -0.00354333c0.133466,-0.544492 0.333073,-1.02757 0.582288,-1.45513 0.249215,-0.427562 0.55276,-0.804337 0.894102,-1.13505 1.66182,-1.60749 4.18232,-2.00671 5.78981,-2.00671l0 -0.00472445zm0.00354333 1.80474l0 0.00472445 -0.00354333 0 0 -0.00472445c-1.29096,0 -3.29176,0.298821 -4.53193,1.50001 -0.222049,0.214962 -0.422838,0.464177 -0.590556,0.753549 -0.168899,0.288191 -0.303546,0.612997 -0.392129,0.974417l-0.00118111 0 0 0.00236222 0 0.00354333c-0.753549,3.06498 -0.804337,5.3965 -0.367326,7.38903 0.43583,1.98309 1.36891,3.66853 2.58191,5.42721 0.38268,0.553941 1.37363,1.36064 2.36577,1.80828 0.185435,0.0838589 0.366145,0.152363 0.536225,0.199608 0.157088,0.0448822 0.302365,0.0720478 0.428744,0.0791345l0 0 0.0602367 0.00236222 0 0c0.883472,0.00590556 1.73505,-0.516146 2.44372,-1.23662 0.147639,-0.152363 0.291735,-0.314176 0.427562,-0.483075 0.140552,-0.173623 0.269293,-0.348428 0.386224,-0.522051l-0.00118111 -0.00118111 0.0448822 -0.0673234 0.00118111 0.00118111c1.58505,-2.41065 2.51931,-4.56382 2.85002,-6.62249 0.324806,-2.02443 0.0673234,-3.98389 -0.724021,-6.03666 -0.386224,-1.00158 -1.06891,-1.71379 -1.86143,-2.20159 -0.141733,-0.0874023 -0.305908,-0.175986 -0.48898,-0.264569 -1.05237,-0.511421 -2.21813,-0.703943 -3.1642,-0.705124z"></path><path class="fil1" d="M14.4544 27.7668c0.558666,-1.80946 1.83663,-3.039 4.12444,-3.5705l1.08308 -0.251577 0.0188978 1.11615c0.0177167,1.00631 -0.309451,2.52876 -0.774809,4.04295 -0.390948,1.27206 -0.885834,2.56537 -1.3571,3.54806 -0.59528,1.23781 -1.28741,2.07403 -1.94883,2.08821l0 0c-0.11693,0.00236222 -0.230317,-0.0129922 -0.337798,-0.0460634l-0.497248 -0.154726 -0.113387 -0.512602c-0.55276,-2.49096 -0.707486,-4.60279 -0.197246,-6.25989z"></path><path class="fil1" d="M30.8459 27.2093c0.683864,1.6323 0.814967,3.71932 0.0602367,6.28824l-0.487799 1.65946 -1.08072 -1.35237c-0.66969,-0.837408 -2.48624,-1.54608 -4.38429,-2.28663 -3.74531,-1.45985 -7.76345,-3.02601 -6.61777,-6.79375l0.0779534 -0.258663 0.200789 -0.168899c1.28033,-1.08308 3.21735,-1.62521 5.18626,-1.54489 1.40789,0.0578745 2.84766,0.429925 4.08783,1.14686 1.27206,0.734651 2.33624,1.82836 2.9575,3.31066z"></path><path class="fil0" d="M77.1892 23.4498l0.00354333 0 0 0.00472445c1.18347,0 2.63978,0.239766 3.95554,0.879928 0.200789,0.0980323 0.415751,0.217325 0.643706,0.356696 1.10198,0.679139 2.05159,1.67364 2.59608,3.08388 0.908275,2.35514 1.20119,4.61578 0.823235,6.96974 -0.37205,2.31734 -1.39726,4.70082 -3.1264,7.33116l0 0.00472445 -0.0448822 0.0673234 -0.00354333 0.00236222c-0.152363,0.227955 -0.312995,0.44646 -0.479531,0.653155 -0.171261,0.2126 -0.354333,0.420476 -0.549217,0.617721 -1.02284,1.0441 -2.32088,1.79411 -3.76775,1.77403l-0.0177167 0 -0.0767723 -0.00236222 -0.0177167 0c-0.271656,-0.0141733 -0.548036,-0.06378 -0.824416,-0.141733 -0.263388,-0.07441 -0.529138,-0.174805 -0.791345,-0.292916 -1.2697,-0.572839 -2.57719,-1.66064 -3.1075,-2.42837 -1.33702,-1.9382 -2.36813,-3.81263 -2.8642,-6.06973 -0.493705,-2.24884 -0.445279,-4.8402 0.381499,-8.20282l0 0 0.00118111 -0.00236222 0 -0.00354333c0.133466,-0.544492 0.333073,-1.02757 0.582288,-1.45513 0.249215,-0.427562 0.55276,-0.804337 0.895283,-1.13505 1.66064,-1.60749 4.18114,-2.00671 5.78863,-2.00671l0 -0.00472445zm0.00354333 1.80474l0 0.00472445 -0.00354333 0 0 -0.00472445c-1.29096,0 -3.29176,0.298821 -4.53193,1.50001 -0.222049,0.214962 -0.422838,0.464177 -0.590556,0.753549 -0.168899,0.288191 -0.302365,0.612997 -0.392129,0.974417l-0.00118111 0 0 0.00236222 0 0.00354333c-0.753549,3.06498 -0.804337,5.3965 -0.367326,7.38903 0.43583,1.98309 1.36891,3.66853 2.58191,5.42721 0.38268,0.553941 1.37363,1.36064 2.36577,1.80828 0.185435,0.0838589 0.366145,0.152363 0.537406,0.199608 0.157088,0.0448822 0.301183,0.0720478 0.427562,0.0791345l0 0 0.0602367 0.00236222 0 0c0.883472,0.00590556 1.73623,-0.516146 2.44372,-1.23662 0.147639,-0.152363 0.291735,-0.314176 0.428744,-0.483075 0.139371,-0.173623 0.268112,-0.348428 0.385042,-0.522051l-0.00118111 -0.00118111 0.0448822 -0.0673234 0.00118111 0.00118111c1.58505,-2.41065 2.51931,-4.56382 2.85002,-6.62249 0.324806,-2.02443 0.0673234,-3.98389 -0.724021,-6.03666 -0.386224,-1.00158 -1.06891,-1.71379 -1.86143,-2.20159 -0.141733,-0.0874023 -0.305908,-0.175986 -0.48898,-0.264569 -1.05237,-0.511421 -2.21695,-0.703943 -3.1642,-0.705124z"></path><path class="fil1" d="M68.8836 27.7668c0.558666,-1.80946 1.83663,-3.039 4.12444,-3.5705l1.08308 -0.251577 0.0188978 1.11615c0.0177167,1.00631 -0.30827,2.52876 -0.774809,4.04295 -0.389767,1.27206 -0.885834,2.56537 -1.3571,3.54806 -0.59528,1.23781 -1.28741,2.07403 -1.94765,2.08821l0 0c-0.118111,0.00236222 -0.231498,-0.0129922 -0.338979,-0.0460634l-0.497248 -0.154726 -0.113387 -0.512602c-0.55276,-2.49096 -0.707486,-4.60279 -0.197246,-6.25989z"></path><path class="fil1" d="M85.2751 27.2093c0.683864,1.6323 0.814967,3.71932 0.0602367,6.28824l-0.487799 1.65946 -1.08072 -1.35237c-0.66969,-0.837408 -2.48624,-1.54608 -4.38429,-2.28663 -3.74531,-1.45985 -7.76345,-3.02601 -6.61777,-6.79375l0.0779534 -0.258663 0.200789 -0.168899c1.28033,-1.08308 3.21735,-1.62521 5.18626,-1.54489 1.40789,0.0578745 2.84766,0.429925 4.08783,1.14686 1.27206,0.734651 2.33624,1.82836 2.9575,3.31066z"></path></g></g></svg>