<svg xmlns="http://www.w3.org/2000/svg" xmlns:xlink="http://www.w3.org/1999/xlink" version="1.1" x="0px" y="0px" viewBox="0 0 100 100" enable-background="new 0 0 100 100" xml:space="preserve"><path d="M63.973,98.002c-4.717-12.407-9.433-24.815-14.379-37.824c-5.196,12.714-10.19,24.931-15.341,37.534  c-1.777-4.574-3.386-8.716-5.059-13.023c-4.33,1.805-8.55,3.565-13.045,5.439c0.169-0.672,0.23-1.14,0.402-1.561  c4.475-10.981,9.002-21.942,13.405-32.952c0.677-1.692,1.51-2.695,3.376-2.862c1.144-0.102,2.261-0.502,3.549-0.805  c1.214,3.961,2.398,7.823,3.659,11.937c3.147-2.941,6.069-5.671,9.099-8.503c3.001,2.808,5.922,5.54,9.092,8.505  c1.248-4.072,2.425-7.913,3.654-11.927c2.402,0.559,4.743,1.021,7.02,1.697c0.502,0.149,0.907,1.004,1.143,1.616  c4.189,10.883,8.342,21.78,12.516,32.668c0.199,0.52,0.521,0.992,0.786,1.487c0,0.26,0,0.52,0,0.779  c-0.737-0.192-1.497-0.322-2.206-0.588c-3.024-1.137-6.019-2.355-9.063-3.435c-0.486-0.172-1.503,0.016-1.712,0.37  c-2.234,3.777-4.354,7.622-6.505,11.448C64.233,98.002,64.103,98.002,63.973,98.002z"></path><path d="M29.215,50.291c0.804-3.499,1.524-6.634,2.283-9.939c-3.252-1-6.368-1.958-9.747-2.997c2.403-2.578,4.635-4.973,6.957-7.464  c-2.299-2.474-4.494-4.838-6.937-7.467c3.301-1.025,6.39-1.984,9.698-3.012c-0.735-3.262-1.453-6.45-2.237-9.931  c3.401,0.768,6.58,1.485,9.93,2.241c1.007-3.251,1.973-6.369,3.01-9.718c2.551,2.374,4.913,4.573,7.462,6.945  c2.464-2.289,4.897-4.548,7.484-6.951c1.025,3.353,1.966,6.43,2.976,9.733c3.26-0.741,6.44-1.464,9.941-2.26  c-0.771,3.414-1.49,6.595-2.248,9.951c3.219,0.985,6.341,1.94,9.739,2.98c-2.424,2.604-4.659,5.006-6.959,7.478  c2.296,2.473,4.524,4.872,6.943,7.476c-3.385,1.041-6.496,1.997-9.73,2.992c0.753,3.296,1.467,6.423,2.269,9.932  c-3.432-0.779-6.552-1.486-9.925-2.251c-0.975,3.149-1.943,6.273-3.009,9.713c-2.531-2.346-4.933-4.571-7.475-6.927  c-2.401,2.234-4.803,4.468-7.468,6.948c-1.027-3.333-1.981-6.434-2.996-9.728C35.916,48.773,32.73,49.495,29.215,50.291z"></path></svg>