<svg xmlns="http://www.w3.org/2000/svg" width="2050.87" height="416.16" viewBox="0 0 2050.87 416.16"><defs><style>.e5b81b62-ee4c-40d8-b551-e083080e5d43{fill:#4e3192;}.\38 837446e-112a-482f-af04-43b7e9e0a371{fill:#ffa2f5;}.de63a3c0-1866-45e0-8b4d-656e08f6d990{fill:#432d79;}.\39 a2065b9-2c11-4d3d-aa31-7d279a3827de{fill:#222326;}</style></defs><title>shapes-mountains</title><g id="5c833ba0-a9df-4842-a8da-16c8d0138415" data-name="Layer 2"><g id="f91b447b-bddc-4c95-8703-ff1964de1949" data-name="Layer 1"><polygon class="e5b81b62-ee4c-40d8-b551-e083080e5d43" points="1033.13 416.16 1790.88 416.16 1033.13 0 1033.13 416.16"/><polygon class="8837446e-112a-482f-af04-43b7e9e0a371" points="1033.13 416.16 1790.88 416.16 1033.13 0 1033.13 416.16"/><polygon class="de63a3c0-1866-45e0-8b4d-656e08f6d990" points="1274.49 416.16 275.37 416.16 1033.13 0 1274.49 416.16"/><polygon class="9a2065b9-2c11-4d3d-aa31-7d279a3827de" points="562.47 416.16 275.37 416.16 1033.13 0 562.47 416.16"/><polygon class="e5b81b62-ee4c-40d8-b551-e083080e5d43" points="1603.64 416.16 1932.79 416.16 1603.64 158.99 1603.64 416.16"/><polygon class="9a2065b9-2c11-4d3d-aa31-7d279a3827de" points="1603.64 416.16 1274.49 416.16 1603.64 158.99 1603.64 416.16"/><polygon class="9a2065b9-2c11-4d3d-aa31-7d279a3827de" points="221.08 243.43 0 416.16 221.08 416.16 442.16 416.16 221.08 243.43"/><polygon class="9a2065b9-2c11-4d3d-aa31-7d279a3827de" points="878.85 313.57 747.55 416.16 878.85 416.16 1010.15 416.16 878.85 313.57"/><polygon class="e5b81b62-ee4c-40d8-b551-e083080e5d43" points="374.07 416.16 562.47 416.16 374.07 148.49 374.07 416.16"/><polygon class="9a2065b9-2c11-4d3d-aa31-7d279a3827de" points="374.07 416.16 185.67 416.16 374.07 148.49 374.07 416.16"/><polygon class="9a2065b9-2c11-4d3d-aa31-7d279a3827de" points="1892.98 209.58 1735.09 416.16 1892.98 416.16 2050.87 416.16 1892.98 209.58"/></g></g></svg>