<svg xmlns="http://www.w3.org/2000/svg" width="2037.34" height="1120.77" viewBox="0 0 2037.34 1120.77"><defs><style>.\37 96eab3c-6d32-4236-ac25-f7ffca7e5b57{fill:#6f3fdc;}.\31 064ef8d-09ee-4100-9a71-b66dbc911a3f{fill:#ffa2f5;}.fe80ad46-fcad-4066-a5bb-f769abc957b6{fill:#007acd;}.\36 b08c20b-f1d2-407e-a59d-545fe88082e8{fill:#05b0f1;}.e1cffade-5d27-4293-b663-b13a9248686d{fill:#07d1e2;}</style></defs><title>shapes-stars</title><g id="740a7d8d-41a2-41c6-b197-1a06db05a7d2" data-name="Layer 2"><g id="050e0c46-96e7-4482-9d3f-97d90da1e68c" data-name="Layer 1"><path class="796eab3c-6d32-4236-ac25-f7ffca7e5b57" d="M2011.51,591.41a5.76,5.76,0,0,1,4.13,1.57,5.21,5.21,0,0,1,1.65,3.94,5.13,5.13,0,0,1-1.67,3.92,5.92,5.92,0,0,1-4.2,1.55,5.58,5.58,0,0,1-4-1.55,5.17,5.17,0,0,1-1.61-3.89,5.29,5.29,0,0,1,1.62-4A5.66,5.66,0,0,1,2011.51,591.41Z"/><path class="1064ef8d-09ee-4100-9a71-b66dbc911a3f" d="M1794.52,542a3.2,3.2,0,0,1,2.3.87,2.9,2.9,0,0,1,.92,2.19,2.85,2.85,0,0,1-.93,2.18,3.29,3.29,0,0,1-2.34.86,3.1,3.1,0,0,1-2.24-.86,2.88,2.88,0,0,1-.9-2.16,2.94,2.94,0,0,1,.9-2.21A3.15,3.15,0,0,1,1794.52,542Z"/><path class="fe80ad46-fcad-4066-a5bb-f769abc957b6" d="M1460.84,173.26a14.82,14.82,0,0,1,10.64,4,13.42,13.42,0,0,1,4.25,10.14,13.2,13.2,0,0,1-4.29,10.09,15.25,15.25,0,0,1-10.81,4,14.37,14.37,0,0,1-10.38-4,13.32,13.32,0,0,1-4.15-10,13.62,13.62,0,0,1,4.18-10.22A14.58,14.58,0,0,1,1460.84,173.26ZM1461,177a10.7,10.7,0,0,0-7.78,3,10.08,10.08,0,0,0-3,7.56,9.9,9.9,0,0,0,3.06,7.42,11.34,11.34,0,0,0,15.35-.06,10.09,10.09,0,0,0,3.08-7.52,9.86,9.86,0,0,0-3.08-7.37A10.48,10.48,0,0,0,1461,177Z"/><path class="6b08c20b-f1d2-407e-a59d-545fe88082e8" d="M1941.66,197.91a8.66,8.66,0,0,1,6.22,2.36,7.84,7.84,0,0,1,2.48,5.93,7.71,7.71,0,0,1-2.51,5.9,8.91,8.91,0,0,1-6.32,2.34,8.4,8.4,0,0,1-6.07-2.34,7.79,7.79,0,0,1-2.43-5.85,8,8,0,0,1,2.44-6A8.52,8.52,0,0,1,1941.66,197.91Zm.09,2.19a6.25,6.25,0,0,0-4.55,1.73,5.89,5.89,0,0,0-1.78,4.42,5.79,5.79,0,0,0,1.79,4.34,6.63,6.63,0,0,0,9,0,5.9,5.9,0,0,0,1.8-4.39,5.76,5.76,0,0,0-1.8-4.31A6.12,6.12,0,0,0,1941.76,200.1Z"/><path class="6b08c20b-f1d2-407e-a59d-545fe88082e8" d="M1657.6,440.45a23.34,23.34,0,0,1,16.75,6.37,21.13,21.13,0,0,1,6.69,16,20.78,20.78,0,0,1-6.75,15.89q-6.75,6.29-17,6.29a22.63,22.63,0,0,1-16.35-6.29,21,21,0,0,1-6.54-15.77,21.45,21.45,0,0,1,6.58-16.09Q1647.54,440.45,1657.6,440.45Zm.25,5.9A16.84,16.84,0,0,0,1645.6,451a15.87,15.87,0,0,0-4.8,11.9,15.59,15.59,0,0,0,4.81,11.68,17.86,17.86,0,0,0,24.16-.09,15.89,15.89,0,0,0,4.86-11.84,15.52,15.52,0,0,0-4.86-11.6A16.5,16.5,0,0,0,1657.85,446.35Z"/><path class="e1cffade-5d27-4293-b663-b13a9248686d" d="M1812,661l-7.13-7.13,7.13-7.13,7.13,7.13Zm-4.28-7.13,4.28,4.28,4.28-4.28-4.28-4.28Z"/><path class="e1cffade-5d27-4293-b663-b13a9248686d" d="M1820.36,377.79l-5.86-5.86,5.86-5.86,5.86,5.86Zm-3.52-5.86,3.52,3.52,3.52-3.52-3.52-3.52Z"/><path class="796eab3c-6d32-4236-ac25-f7ffca7e5b57" d="M1998.11,460.76l-5.86-5.86,5.86-5.86,5.86,5.86Zm-3.52-5.86,3.52,3.52,3.52-3.52-3.52-3.52Z"/><path class="1064ef8d-09ee-4100-9a71-b66dbc911a3f" d="M1684.5,144.26l-7.13-7.13,7.13-7.13,7.13,7.13Zm-4.28-7.13,4.28,4.28,4.28-4.28-4.28-4.28Z"/><path class="e1cffade-5d27-4293-b663-b13a9248686d" d="M1270.28,106.09l-8.47-8.47,8.47-8.47,8.47,8.47Zm-5.09-8.47,5.09,5.09,5.09-5.09-5.09-5.09Z"/><polygon class="6b08c20b-f1d2-407e-a59d-545fe88082e8" points="1689.63 263.61 1686.34 263.61 1677.82 285.19 1681.11 285.19 1689.63 263.61"/><polygon class="6b08c20b-f1d2-407e-a59d-545fe88082e8" points="1705.43 263.61 1702.14 263.61 1693.63 285.19 1696.91 285.19 1705.43 263.61"/><polygon class="1064ef8d-09ee-4100-9a71-b66dbc911a3f" points="1874.28 11.8 1874.28 8.52 1852.7 0 1852.7 3.29 1874.28 11.8"/><polygon class="1064ef8d-09ee-4100-9a71-b66dbc911a3f" points="1874.28 27.6 1874.28 24.32 1852.7 15.8 1852.7 19.09 1874.28 27.6"/><polygon class="e1cffade-5d27-4293-b663-b13a9248686d" points="2024.39 108.43 2037.35 95.48 2037.35 86.87 2015.78 108.43 2037.35 130 2037.35 121.39 2024.39 108.43"/><path class="fe80ad46-fcad-4066-a5bb-f769abc957b6" d="M699.08,69.62a5.76,5.76,0,0,1-4.13-1.57,5.21,5.21,0,0,1-1.65-3.94A5.13,5.13,0,0,1,695,60.19a5.92,5.92,0,0,1,4.2-1.55,5.58,5.58,0,0,1,4,1.55,5.17,5.17,0,0,1,1.61,3.89,5.29,5.29,0,0,1-1.62,4A5.66,5.66,0,0,1,699.08,69.62Z"/><path class="e1cffade-5d27-4293-b663-b13a9248686d" d="M793.27,176.31a3.2,3.2,0,0,1-2.3-.87,2.9,2.9,0,0,1-.92-2.19,2.85,2.85,0,0,1,.93-2.18,3.29,3.29,0,0,1,2.34-.86,3.1,3.1,0,0,1,2.24.86,2.88,2.88,0,0,1,.9,2.16,2.94,2.94,0,0,1-.9,2.21A3.15,3.15,0,0,1,793.27,176.31Z"/><path class="e1cffade-5d27-4293-b663-b13a9248686d" d="M68.14,523.23a8.66,8.66,0,0,1-6.22-2.36,7.84,7.84,0,0,1-2.48-5.93,7.71,7.71,0,0,1,2.51-5.9,8.91,8.91,0,0,1,6.32-2.34A8.4,8.4,0,0,1,74.33,509a7.79,7.79,0,0,1,2.43,5.85,8,8,0,0,1-2.44,6A8.52,8.52,0,0,1,68.14,523.23ZM68,521a6.25,6.25,0,0,0,4.55-1.73,5.89,5.89,0,0,0,1.78-4.42,5.79,5.79,0,0,0-1.79-4.34,6.63,6.63,0,0,0-9,0,5.9,5.9,0,0,0-1.8,4.39,5.76,5.76,0,0,0,1.8,4.31A6.12,6.12,0,0,0,68,521Z"/><path class="1064ef8d-09ee-4100-9a71-b66dbc911a3f" d="M898.58,0l7.13,7.13-7.13,7.13-7.13-7.13Zm4.28,7.13-4.28-4.28L894.3,7.13l4.28,4.28Z"/><path class="e1cffade-5d27-4293-b663-b13a9248686d" d="M213,321.33l5.86,5.86L213,333.05l-5.86-5.86Zm3.52,5.86L213,323.67l-3.52,3.52,3.52,3.52Z"/><path class="1064ef8d-09ee-4100-9a71-b66dbc911a3f" d="M361.4,125.08l5.86,5.86-5.86,5.86-5.86-5.86Zm3.52,5.86-3.52-3.52-3.52,3.52,3.52,3.52Z"/><path class="fe80ad46-fcad-4066-a5bb-f769abc957b6" d="M1412.9,874.17l7.13,7.13-7.13,7.13-7.13-7.13Zm4.28,7.13L1412.9,877l-4.28,4.28,4.28,4.28Z"/><path class="e1cffade-5d27-4293-b663-b13a9248686d" d="M1440.31,554.94l8.47,8.47-8.47,8.47-8.47-8.47Zm5.09,8.47-5.09-5.09-5.09,5.09,5.09,5.09Z"/><path class="796eab3c-6d32-4236-ac25-f7ffca7e5b57" d="M662.45,344.4a5.76,5.76,0,0,1,4.13,1.57,5.21,5.21,0,0,1,1.65,3.94,5.13,5.13,0,0,1-1.67,3.92,5.92,5.92,0,0,1-4.2,1.55,5.58,5.58,0,0,1-4-1.55,5.17,5.17,0,0,1-1.61-3.89,5.29,5.29,0,0,1,1.62-4A5.66,5.66,0,0,1,662.45,344.4Z"/><path class="1064ef8d-09ee-4100-9a71-b66dbc911a3f" d="M574.66,542a3.2,3.2,0,0,1,2.3.87,2.9,2.9,0,0,1,.92,2.19,2.85,2.85,0,0,1-.93,2.18,3.29,3.29,0,0,1-2.34.86,3.1,3.1,0,0,1-2.24-.86,2.88,2.88,0,0,1-.9-2.16,2.94,2.94,0,0,1,.9-2.21A3.15,3.15,0,0,1,574.66,542Z"/><path class="e1cffade-5d27-4293-b663-b13a9248686d" d="M592.14,661,585,653.9l7.13-7.13,7.13,7.13Zm-4.28-7.13,4.28,4.28,4.28-4.28-4.28-4.28Z"/><path class="fe80ad46-fcad-4066-a5bb-f769abc957b6" d="M38.72,626.3l7.13,7.13-7.13,7.13-7.13-7.13ZM43,633.43l-4.28-4.28-4.28,4.28,4.28,4.28Z"/><path class="e1cffade-5d27-4293-b663-b13a9248686d" d="M220.45,554.94l8.47,8.47-8.47,8.47L212,563.4Zm5.09,8.47-5.09-5.09-5.09,5.09,5.09,5.09Z"/><polygon class="1064ef8d-09ee-4100-9a71-b66dbc911a3f" points="343.73 435.52 347.02 435.52 355.54 413.93 352.25 413.93 343.73 435.52"/><polygon class="1064ef8d-09ee-4100-9a71-b66dbc911a3f" points="327.93 435.52 331.22 435.52 339.74 413.93 336.45 413.93 327.93 435.52"/><polygon class="1064ef8d-09ee-4100-9a71-b66dbc911a3f" points="137.49 104.71 137.49 108 159.07 116.52 159.07 113.23 137.49 104.71"/><polygon class="1064ef8d-09ee-4100-9a71-b66dbc911a3f" points="137.49 88.91 137.49 92.2 159.07 100.71 159.07 97.43 137.49 88.91"/><path class="e1cffade-5d27-4293-b663-b13a9248686d" d="M.46,355.38l-.46,0v5.7H.06a16.62,16.62,0,0,1,12,4.66,15.59,15.59,0,0,1,4.81,11.68,15.87,15.87,0,0,1-4.8,11.9A16.81,16.81,0,0,1,0,394v5.9H.12q10.06,0,16.64-6.37a21.45,21.45,0,0,0,6.58-16.09,21,21,0,0,0-6.54-15.77A22.63,22.63,0,0,0,.46,355.38Z"/><path class="fe80ad46-fcad-4066-a5bb-f769abc957b6" d="M576.5,947.51a14.82,14.82,0,0,1-10.64-4,13.42,13.42,0,0,1-4.25-10.14,13.2,13.2,0,0,1,4.29-10.09,15.25,15.25,0,0,1,10.81-4,14.37,14.37,0,0,1,10.38,4,13.32,13.32,0,0,1,4.15,10,13.62,13.62,0,0,1-4.18,10.22A14.58,14.58,0,0,1,576.5,947.51Zm-.16-3.75a10.7,10.7,0,0,0,7.78-3,10.08,10.08,0,0,0,3-7.56,9.9,9.9,0,0,0-3.06-7.42,11.34,11.34,0,0,0-15.35.06,10.09,10.09,0,0,0-3.08,7.52,9.86,9.86,0,0,0,3.08,7.37A10.48,10.48,0,0,0,576.34,943.76Z"/><path class="6b08c20b-f1d2-407e-a59d-545fe88082e8" d="M95.68,922.87a8.66,8.66,0,0,1-6.22-2.36A7.84,7.84,0,0,1,87,914.57a7.71,7.71,0,0,1,2.51-5.9,8.91,8.91,0,0,1,6.32-2.34,8.4,8.4,0,0,1,6.07,2.34,7.79,7.79,0,0,1,2.43,5.85,8,8,0,0,1-2.44,6A8.52,8.52,0,0,1,95.68,922.87Zm-.09-2.19a6.25,6.25,0,0,0,4.55-1.73,5.89,5.89,0,0,0,1.78-4.42,5.79,5.79,0,0,0-1.79-4.34,6.63,6.63,0,0,0-9,0,5.9,5.9,0,0,0-1.8,4.39,5.76,5.76,0,0,0,1.8,4.31A6.12,6.12,0,0,0,95.59,920.68Z"/><path class="e1cffade-5d27-4293-b663-b13a9248686d" d="M217,743l5.86,5.86L217,754.7l-5.86-5.86Zm3.52,5.86L217,745.32l-3.52,3.52,3.52,3.52Z"/><path class="1064ef8d-09ee-4100-9a71-b66dbc911a3f" d="M352.85,976.52l7.13,7.13-7.13,7.13-7.13-7.13Zm4.28,7.13-4.28-4.28-4.28,4.28,4.28,4.28Z"/><path class="e1cffade-5d27-4293-b663-b13a9248686d" d="M767.07,1014.68l8.47,8.47-8.47,8.47-8.47-8.47Zm5.09,8.47-5.09-5.09-5.09,5.09,5.09,5.09Z"/><polygon class="6b08c20b-f1d2-407e-a59d-545fe88082e8" points="347.72 857.17 351 857.17 359.52 835.58 356.23 835.58 347.72 857.17"/><polygon class="6b08c20b-f1d2-407e-a59d-545fe88082e8" points="331.92 857.17 335.2 857.17 343.72 835.58 340.43 835.58 331.92 857.17"/><polygon class="1064ef8d-09ee-4100-9a71-b66dbc911a3f" points="163.06 1108.97 163.06 1112.26 184.65 1120.77 184.65 1117.49 163.06 1108.97"/><polygon class="1064ef8d-09ee-4100-9a71-b66dbc911a3f" points="163.06 1093.17 163.06 1096.46 184.65 1104.97 184.65 1101.68 163.06 1093.17"/><polygon class="e1cffade-5d27-4293-b663-b13a9248686d" points="12.96 1012.34 0 1025.3 0 1033.9 21.57 1012.34 0 990.77 0 999.38 12.96 1012.34"/><path class="fe80ad46-fcad-4066-a5bb-f769abc957b6" d="M1338.27,1051.15a5.76,5.76,0,0,1,4.13,1.57,5.21,5.21,0,0,1,1.65,3.94,5.13,5.13,0,0,1-1.67,3.92,5.92,5.92,0,0,1-4.2,1.55,5.58,5.58,0,0,1-4-1.55,5.17,5.17,0,0,1-1.61-3.89,5.29,5.29,0,0,1,1.62-4A5.66,5.66,0,0,1,1338.27,1051.15Z"/><path class="e1cffade-5d27-4293-b663-b13a9248686d" d="M1244.07,944.46a3.2,3.2,0,0,1,2.3.87,2.9,2.9,0,0,1,.92,2.19,2.85,2.85,0,0,1-.93,2.18,3.29,3.29,0,0,1-2.34.86,3.1,3.1,0,0,1-2.24-.86,2.88,2.88,0,0,1-.9-2.16,2.94,2.94,0,0,1,.9-2.21A3.15,3.15,0,0,1,1244.07,944.46Z"/><path class="1064ef8d-09ee-4100-9a71-b66dbc911a3f" d="M1138.76,1120.77l-7.13-7.13,7.13-7.13,7.13,7.13Zm-4.28-7.13,4.28,4.28,4.28-4.28-4.28-4.28Z"/><path class="e1cffade-5d27-4293-b663-b13a9248686d" d="M1824.34,799.44l-5.86-5.86,5.86-5.86,5.86,5.86Zm-3.52-5.86,3.52,3.52,3.52-3.52-3.52-3.52Z"/><path class="1064ef8d-09ee-4100-9a71-b66dbc911a3f" d="M1675.95,995.69l-5.86-5.86,5.86-5.86,5.86,5.86Zm-3.52-5.86,3.52,3.52,3.52-3.52-3.52-3.52Z"/><path class="e1cffade-5d27-4293-b663-b13a9248686d" d="M1604,900.11l-18.81-18.81L1604,862.49l18.81,18.81Zm-11.3-18.81,11.3,11.3,11.3-11.3L1604,870Z"/><polygon class="1064ef8d-09ee-4100-9a71-b66dbc911a3f" points="1899.86 1016.06 1899.86 1012.77 1878.27 1004.26 1878.27 1007.54 1899.86 1016.06"/><polygon class="1064ef8d-09ee-4100-9a71-b66dbc911a3f" points="1899.86 1031.86 1899.86 1028.57 1878.27 1020.06 1878.27 1023.35 1899.86 1031.86"/><path class="e1cffade-5d27-4293-b663-b13a9248686d" d="M2036.88,765.39l.46,0v-5.7h-.06a16.62,16.62,0,0,1-12-4.66,15.59,15.59,0,0,1-4.81-11.68,15.87,15.87,0,0,1,4.8-11.9,16.81,16.81,0,0,1,12.12-4.66v-5.9h-.12q-10.06,0-16.64,6.37a21.45,21.45,0,0,0-6.58,16.09,21,21,0,0,0,6.54,15.77A22.63,22.63,0,0,0,2036.88,765.39Z"/></g></g></svg>