<svg xmlns="http://www.w3.org/2000/svg" width="658.41" height="790.98" viewBox="0 0 658.41 790.98"><defs><style>.\36 815876b-069c-4086-9925-8030008654c8{fill:#07d1e2;}</style></defs><title>shapes-trees-right-cut</title><g id="4d995973-e8a7-477c-be29-13d78e1abb8c" data-name="Layer 2"><g id="4897a2a9-881b-4839-86da-1799914dc495" data-name="Layer 1"><polygon class="6815876b-069c-4086-9925-8030008654c8" points="483.62 722.98 428.84 588.14 460.03 588.14 415.05 477.45 440.21 477.45 374.29 315.18 309.05 477.45 333.74 477.45 289.23 588.14 319.85 588.14 265.63 722.98 483.62 722.98"/><polygon class="6815876b-069c-4086-9925-8030008654c8" points="189.44 790.98 141.83 673.8 168.94 673.8 129.85 577.6 151.72 577.6 94.42 436.58 37.73 577.6 59.18 577.6 20.5 673.8 47.11 673.8 0 790.98 189.44 790.98"/><polygon class="6815876b-069c-4086-9925-8030008654c8" points="658.41 565.17 658.41 0 568 224.88 602.21 224.88 540.53 378.3 582.96 378.3 507.83 565.17 658.41 565.17"/></g></g></svg>