<svg xmlns="http://www.w3.org/2000/svg" width="501.64" height="912.2" viewBox="0 0 501.64 912.2"><defs><style>.\34 0bb5150-37ba-48ab-8a1f-3cb5e1c05103{fill:#ffa2f5;}.\31 c02f6b1-fa1d-4738-96b7-b15c72b7fba1{fill:#07d1e2;}.\32 0a9a47f-4bd8-4a0a-9fd5-1424de5f211e{fill:#05b0f1;}.\35 c5cb340-e6ca-47b3-8b99-f4e18e73ed4a{fill:#fff;}.\34 fd6d3af-1c3b-4d98-8530-e16db77ec6db{fill:#6f3fdc;}</style></defs><title>sun-balloon</title><g id="b75a8f69-7729-4a42-9375-d2316e13664b" data-name="Layer 2"><g id="0666f7e0-d99e-42bf-82cb-9dac87aaa15c" data-name="Layer 1"><polygon class="40bb5150-37ba-48ab-8a1f-3cb5e1c05103" points="501.64 411.97 449.23 411.97 501.1 540.98 501.64 539.63 501.64 411.97"/><polygon class="40bb5150-37ba-48ab-8a1f-3cb5e1c05103" points="230.88 270.21 359.88 218.35 359.88 322.63 230.88 270.21"/><polygon class="1c02f6b1-fa1d-4738-96b7-b15c72b7fba1" points="310.3 79.03 438.19 133.57 364.45 207.31 310.3 79.03"/><polygon class="1c02f6b1-fa1d-4738-96b7-b15c72b7fba1" points="309.91 461.56 364.45 333.66 438.19 407.4 309.91 461.56"/><polygon class="40bb5150-37ba-48ab-8a1f-3cb5e1c05103" points="501.64 0 449.23 129 501.64 129 501.64 0"/><path class="20a9a47f-4bd8-4a0a-9fd5-1424de5f211e" d="M501.64,386.26q-47.51-.47-79.56-33.2-32.5-33.23-32.5-82.89,0-49.46,31.87-82.36t79.88-32.9h.31v-44h-.31q-64.79,0-107.81,44.7t-43,111.78q0,70.28,43,116.45,42.85,46,108.13,46.17Z"/><polygon class="5c5cb340-e6ca-47b3-8b99-f4e18e73ed4a" points="112.37 807.22 118.38 807.22 133.95 846.7 127.94 846.7 112.37 807.22"/><polygon class="5c5cb340-e6ca-47b3-8b99-f4e18e73ed4a" points="83.47 807.22 89.48 807.22 105.06 846.7 99.05 846.7 83.47 807.22"/><polygon class="5c5cb340-e6ca-47b3-8b99-f4e18e73ed4a" points="110.75 807.22 104.74 807.22 89.17 846.7 95.18 846.7 110.75 807.22"/><polygon class="5c5cb340-e6ca-47b3-8b99-f4e18e73ed4a" points="139.65 807.22 133.63 807.22 118.06 846.7 124.07 846.7 139.65 807.22"/><path class="4fd6d3af-1c3b-4d98-8530-e16db77ec6db" d="M223.12,693.07q0,50.41-31.92,83.94t-80,33.53q-48.11,0-79.64-33.84T0,691.35q0-49.17,31.53-81.92t79-32.76q48.72,0,80.65,33T223.12,693.07Z"/><rect class="20a9a47f-4bd8-4a0a-9fd5-1424de5f211e" x="78.81" y="846.7" width="65.5" height="65.5"/><polygon class="40bb5150-37ba-48ab-8a1f-3cb5e1c05103" points="29.57 694.06 9.26 643.54 50.09 643.54 29.57 694.06"/><polygon class="20a9a47f-4bd8-4a0a-9fd5-1424de5f211e" points="70.4 694.06 50.09 643.54 90.92 643.54 70.4 694.06"/><polygon class="40bb5150-37ba-48ab-8a1f-3cb5e1c05103" points="111.23 694.06 90.92 643.54 131.75 643.54 111.23 694.06"/><polygon class="20a9a47f-4bd8-4a0a-9fd5-1424de5f211e" points="152.06 694.06 131.75 643.54 172.59 643.54 152.06 694.06"/><polygon class="40bb5150-37ba-48ab-8a1f-3cb5e1c05103" points="192.9 694.06 172.59 643.54 213.42 643.54 192.9 694.06"/><polygon class="20a9a47f-4bd8-4a0a-9fd5-1424de5f211e" points="193.11 693.15 213.42 743.67 172.59 743.67 193.11 693.15"/><polygon class="40bb5150-37ba-48ab-8a1f-3cb5e1c05103" points="152.28 693.15 172.59 743.67 131.75 743.67 152.28 693.15"/><polygon class="20a9a47f-4bd8-4a0a-9fd5-1424de5f211e" points="111.44 693.15 131.75 743.67 90.92 743.67 111.44 693.15"/><polygon class="40bb5150-37ba-48ab-8a1f-3cb5e1c05103" points="70.61 693.15 90.92 743.67 50.09 743.67 70.61 693.15"/><polygon class="20a9a47f-4bd8-4a0a-9fd5-1424de5f211e" points="29.78 693.15 50.09 743.67 9.26 743.67 29.78 693.15"/></g></g></svg>